<svg xmlns="http://www.w3.org/2000/svg" xmlns:xlink="http://www.w3.org/1999/xlink" width="1080" zoomAndPan="magnify" viewBox="0 0 810 809.999993" height="1080" preserveAspectRatio="xMidYMid meet" version="1.0"><defs><clipPath id="4d0a18994a"><path d="M 27.335938 0 L 782.585938 0 L 782.585938 810 L 27.335938 810 Z M 27.335938 0 " clip-rule="nonzero"/></clipPath></defs><g clip-path="url(#4d0a18994a)"><path fill="#000000" d="M 782.46875 377.542969 C 782.46875 169.371094 613.125 0 404.960938 0 C 196.796875 0 27.457031 169.371094 27.457031 377.542969 C 27.457031 532.347656 119.621094 668.882812 262.566406 726.953125 L 260.824219 775.679688 C 260.824219 794.609375 276.226562 810 295.140625 810 L 322.597656 810 C 341.515625 810 356.917969 794.609375 356.917969 775.429688 L 356.066406 751.695312 C 371.851562 753.792969 388.171875 755.085938 404.960938 755.085938 C 436.5625 755.085938 467.476562 751.035156 497.117188 743.441406 L 494.191406 775.679688 C 494.191406 794.609375 509.59375 810 528.511719 810 L 555.964844 810 C 574.882812 810 590.285156 794.609375 590.285156 775.679688 L 590.285156 706.402344 C 708.890625 639.5 782.46875 513.9375 782.46875 377.542969 Z M 237.734375 357.292969 L 274.453125 394.003906 L 267.425781 590.820312 C 195.371094 544.25 151.003906 463.648438 151.003906 377.542969 C 151.003906 312.207031 175.425781 251.5 219.640625 204.503906 L 219.640625 313.605469 C 219.640625 330.109375 226.066406 345.636719 237.734375 357.292969 Z M 576.558594 775.679688 C 576.558594 787.03125 567.316406 796.269531 555.964844 796.269531 L 528.511719 796.269531 C 517.15625 796.269531 507.917969 787.03125 507.890625 776.296875 L 535.347656 474.261719 C 535.523438 472.242188 534.796875 470.226562 533.355469 468.796875 L 494.519531 429.972656 C 485.445312 420.898438 480.449219 408.832031 480.449219 395.980469 L 480.449219 391.269531 C 480.449219 247.035156 537.996094 123.558594 555.953125 123.558594 C 567.304688 123.558594 576.542969 132.796875 576.542969 144.152344 L 576.542969 775.679688 Z M 590.285156 204.4375 C 633.9375 251.210938 658.921875 313.265625 658.921875 377.542969 C 658.921875 442.769531 634.515625 503.558594 590.285156 550.800781 Z M 590.285156 690.4375 L 590.285156 570.582031 C 643.355469 519.539062 672.648438 451.15625 672.648438 377.542969 C 672.648438 304.945312 642.601562 234.898438 590.285156 184.667969 L 590.285156 144.152344 C 590.285156 125.21875 574.882812 109.832031 555.964844 109.832031 C 546.371094 109.832031 535.578125 120.402344 524.886719 138.316406 C 496.113281 123.863281 465.335938 114.609375 433.144531 111.246094 C 429.207031 110.765625 425.992188 113.59375 425.609375 117.355469 C 425.210938 121.117188 427.941406 124.507812 431.71875 124.890625 C 462.082031 128.074219 491.117188 136.78125 518.285156 150.371094 C 491.238281 203.570312 466.738281 300.867188 466.738281 391.269531 L 466.738281 395.980469 C 466.738281 412.480469 473.160156 428.007812 484.828125 439.679688 L 521.386719 476.238281 L 498.433594 729 C 468.480469 737.113281 437.097656 741.355469 404.960938 741.355469 C 387.96875 741.355469 371.453125 740.050781 355.570312 737.828125 L 352.070312 639.871094 C 369.585938 643.375 387.324219 645.253906 404.960938 645.253906 C 428.863281 645.253906 452.554688 642.125 475.386719 635.945312 C 479.050781 634.957031 481.207031 631.183594 480.230469 627.53125 C 479.242188 623.863281 475.414062 621.75 471.816406 622.699219 C 433.144531 633.132812 391.730469 634.285156 351.5625 625.730469 L 343.285156 393.988281 L 380.003906 357.277344 C 391.675781 345.609375 398.097656 330.09375 398.097656 313.578125 L 398.097656 116.695312 C 398.097656 112.90625 395.023438 109.832031 391.234375 109.832031 C 387.445312 109.832031 384.371094 112.90625 384.371094 116.695312 L 384.371094 313.605469 C 384.371094 326.457031 379.375 338.511719 370.300781 347.601562 L 331.464844 386.425781 C 330.121094 387.769531 329.390625 389.609375 329.460938 391.519531 L 343.1875 775.679688 C 343.1875 787.03125 333.949219 796.269531 322.597656 796.269531 L 295.140625 796.269531 C 283.789062 796.269531 274.550781 787.03125 274.550781 775.925781 L 276.460938 722.507812 C 276.460938 722.4375 276.472656 722.367188 276.472656 722.285156 L 288.277344 391.503906 C 288.347656 389.597656 287.621094 387.757812 286.273438 386.410156 L 247.4375 347.585938 C 238.363281 338.511719 233.367188 326.445312 233.367188 313.59375 L 233.367188 116.695312 C 233.367188 112.90625 230.292969 109.832031 226.503906 109.832031 C 222.714844 109.832031 219.640625 112.90625 219.640625 116.695312 L 219.640625 184.777344 C 166.570312 235.546875 137.277344 303.832031 137.277344 377.542969 C 137.277344 471.023438 186.859375 558.378906 266.863281 606.664062 L 263.089844 712.222656 C 128.023438 655.195312 41.183594 525.015625 41.183594 377.542969 C 41.183594 176.9375 204.375 13.730469 404.960938 13.730469 C 605.550781 13.730469 768.742188 176.9375 768.742188 377.542969 C 768.742188 506.347656 700.585938 625.058594 590.285156 690.4375 Z M 288.277344 116.695312 L 288.277344 281.441406 C 288.277344 285.230469 285.203125 288.304688 281.414062 288.304688 C 277.625 288.304688 274.550781 285.230469 274.550781 281.441406 L 274.550781 116.695312 C 274.550781 112.90625 277.625 109.832031 281.414062 109.832031 C 285.203125 109.832031 288.277344 112.90625 288.277344 116.695312 Z M 343.1875 116.695312 L 343.1875 281.441406 C 343.1875 285.230469 340.113281 288.304688 336.324219 288.304688 C 332.535156 288.304688 329.460938 285.230469 329.460938 281.441406 L 329.460938 116.695312 C 329.460938 112.90625 332.535156 109.832031 336.324219 109.832031 C 340.113281 109.832031 343.1875 112.90625 343.1875 116.695312 Z M 343.1875 116.695312 " fill-opacity="1" fill-rule="nonzero"/></g></svg>