<svg xmlns="http://www.w3.org/2000/svg" xmlns:xlink="http://www.w3.org/1999/xlink" width="1080" zoomAndPan="magnify" viewBox="0 0 810 809.999993" height="1080" preserveAspectRatio="xMidYMid meet" version="1.0"><path fill="#000000" d="M 405 0 C 181.34375 0 0 181.34375 0 405 C 0 628.65625 181.34375 810 405 810 C 628.65625 810 810 628.65625 810 405 C 810 181.34375 628.65625 0 405 0 Z M 405 763.152344 C 207.03125 763.152344 46.847656 602.96875 46.847656 405 C 46.847656 207.03125 207.03125 46.847656 405 46.847656 C 602.96875 46.847656 763.152344 207.03125 763.152344 405 C 763.152344 602.96875 602.96875 763.152344 405 763.152344 Z M 405 763.152344 " fill-opacity="1" fill-rule="nonzero"/><path fill="#000000" d="M 609.472656 339.570312 C 609.472656 338.046875 609.398438 336.523438 609.367188 334.996094 C 609.328125 333.105469 609.324219 331.214844 609.234375 329.324219 C 609.203125 328.742188 609.140625 328.164062 609.109375 327.582031 C 608.949219 324.773438 608.773438 321.96875 608.496094 319.164062 C 608.484375 319.054688 608.464844 318.949219 608.453125 318.839844 C 608.234375 316.660156 607.894531 314.53125 607.554688 312.394531 L 606.945312 308.234375 C 606.527344 305.183594 606.132812 302.128906 605.539062 299.09375 C 605.328125 298.011719 605.0625 296.945312 604.808594 295.875 C 604.742188 295.605469 604.683594 295.328125 604.621094 295.054688 C 604.113281 292.984375 603.582031 290.917969 603.066406 288.855469 L 603.0625 288.835938 C 602.28125 285.703125 601.601562 282.570312 600.675781 279.460938 C 599.671875 276.117188 598.417969 272.871094 597.253906 269.605469 C 596.164062 266.511719 595.144531 263.402344 593.890625 260.355469 C 592.636719 257.304688 591.164062 254.359375 589.761719 251.386719 C 588.304688 248.25 586.914062 245.082031 585.277344 242.003906 C 583.757812 239.148438 582.035156 236.441406 580.398438 233.675781 C 578.609375 230.660156 576.917969 227.59375 574.953125 224.648438 C 574.308594 223.675781 573.613281 222.746094 572.933594 221.800781 C 572.789062 221.601562 572.648438 221.398438 572.5 221.195312 C 571.246094 219.480469 569.976562 217.78125 568.714844 216.070312 L 568.238281 215.425781 C 566.511719 213.074219 564.875 210.671875 563.023438 208.394531 C 554.441406 197.851562 544.855469 188.183594 534.398438 179.527344 C 532.570312 178.007812 530.667969 176.640625 528.769531 175.253906 L 525.449219 172.761719 C 525.339844 172.679688 525.226562 172.601562 525.121094 172.519531 C 522.941406 170.84375 520.753906 169.175781 518.464844 167.628906 C 518.398438 167.585938 518.34375 167.535156 518.277344 167.492188 C 518.195312 167.433594 518.101562 167.386719 518.015625 167.328125 C 515.9375 165.9375 513.808594 164.667969 511.675781 163.410156 L 506.957031 160.5625 C 505.066406 159.394531 503.167969 158.238281 501.207031 157.167969 C 501.160156 157.144531 501.113281 157.113281 501.070312 157.085938 C 501.035156 157.066406 500.996094 157.050781 500.957031 157.035156 C 498.214844 155.558594 495.402344 154.289062 492.609375 152.96875 L 490.328125 151.875 C 487.863281 150.675781 485.40625 149.464844 482.875 148.40625 C 480.726562 147.507812 478.546875 146.738281 476.363281 145.964844 C 476.324219 145.949219 476.285156 145.933594 476.242188 145.921875 L 471.136719 144.070312 C 471.058594 144.042969 470.980469 144.019531 470.902344 143.988281 C 468.597656 143.136719 466.289062 142.289062 463.921875 141.566406 C 461.851562 140.933594 459.742188 140.414062 457.636719 139.902344 C 457.476562 139.863281 457.316406 139.8125 457.15625 139.773438 L 451.703125 138.410156 C 451.617188 138.382812 451.527344 138.367188 451.4375 138.34375 C 449.132812 137.75 446.824219 137.15625 444.472656 136.6875 C 444.472656 136.6875 444.46875 136.6875 444.46875 136.6875 C 444.464844 136.6875 444.464844 136.6875 444.460938 136.6875 C 441.683594 136.125 438.894531 135.738281 436.105469 135.351562 L 430.679688 134.546875 C 430.371094 134.492188 430.050781 134.464844 429.738281 134.410156 C 429.011719 134.292969 428.273438 134.207031 427.542969 134.105469 C 426.574219 133.964844 425.609375 133.792969 424.628906 133.695312 C 418.253906 133.0625 411.863281 132.753906 405.476562 132.742188 C 405.324219 132.742188 405.175781 132.730469 405.019531 132.730469 C 405.015625 132.730469 405.011719 132.730469 405.007812 132.730469 C 398.457031 132.730469 391.910156 133.050781 385.386719 133.683594 C 384.320312 133.789062 383.273438 133.96875 382.21875 134.125 C 381.644531 134.207031 381.066406 134.273438 380.488281 134.363281 C 380.09375 134.425781 379.6875 134.464844 379.289062 134.527344 L 373.753906 135.347656 C 371.007812 135.71875 368.261719 136.109375 365.511719 136.65625 C 362.890625 137.171875 360.316406 137.851562 357.742188 138.523438 L 352.589844 139.84375 C 352.078125 139.96875 351.578125 140.121094 351.070312 140.246094 C 350.632812 140.355469 350.203125 140.480469 349.765625 140.59375 C 348.53125 140.914062 347.289062 141.207031 346.070312 141.578125 C 345.167969 141.855469 344.308594 142.195312 343.417969 142.5 C 342.351562 142.867188 341.273438 143.21875 340.214844 143.609375 C 339.726562 143.785156 339.21875 143.941406 338.738281 144.125 L 334.226562 145.757812 C 333.777344 145.917969 333.332031 146.101562 332.886719 146.261719 C 331.628906 146.707031 330.382812 147.183594 329.136719 147.664062 C 328.460938 147.921875 327.785156 148.140625 327.109375 148.421875 C 326.347656 148.734375 325.617188 149.117188 324.863281 149.457031 C 323.808594 149.933594 322.753906 150.410156 321.710938 150.910156 C 321.265625 151.125 320.8125 151.316406 320.363281 151.535156 L 315.722656 153.746094 C 315.234375 153.972656 314.757812 154.226562 314.273438 154.457031 C 313.5 154.824219 312.734375 155.214844 311.960938 155.59375 C 310.933594 156.09375 309.90625 156.5625 308.890625 157.101562 C 307.613281 157.792969 306.390625 158.554688 305.15625 159.300781 C 304.984375 159.40625 304.808594 159.503906 304.632812 159.609375 C 304.082031 159.945312 303.515625 160.257812 302.964844 160.59375 L 298.152344 163.5 C 297.691406 163.777344 297.242188 164.078125 296.777344 164.355469 C 295.855469 164.902344 294.949219 165.492188 294.039062 166.0625 C 293.253906 166.554688 292.441406 167.011719 291.671875 167.535156 C 290.984375 168.003906 290.332031 168.527344 289.65625 169.015625 C 288.527344 169.832031 287.390625 170.644531 286.28125 171.488281 C 285.933594 171.753906 285.574219 172 285.226562 172.261719 L 280.46875 175.824219 C 280.09375 176.101562 279.714844 176.40625 279.335938 176.683594 C 279.1875 176.792969 279.039062 176.910156 278.890625 177.027344 C 277.773438 177.855469 276.65625 178.664062 275.546875 179.574219 C 265.136719 188.1875 255.515625 197.898438 246.921875 208.464844 C 245.710938 209.972656 244.582031 211.523438 243.460938 213.074219 L 239.902344 217.898438 C 239.574219 218.339844 239.261719 218.796875 238.933594 219.238281 C 238.273438 220.121094 237.636719 221.027344 236.992188 221.921875 C 236.328125 222.84375 235.636719 223.730469 235.007812 224.671875 C 234.347656 225.679688 233.769531 226.710938 233.160156 227.730469 C 232.699219 228.492188 232.222656 229.246094 231.777344 230.011719 C 231.570312 230.363281 231.34375 230.707031 231.140625 231.066406 L 228.265625 235.921875 C 228.058594 236.257812 227.878906 236.609375 227.671875 236.945312 C 227.09375 237.898438 226.546875 238.867188 225.992188 239.832031 C 225.570312 240.574219 225.105469 241.289062 224.707031 242.046875 C 224.40625 242.625 224.15625 243.21875 223.867188 243.800781 C 222.902344 245.738281 221.980469 247.691406 221.074219 249.644531 L 219.921875 252.105469 C 218.621094 254.84375 217.277344 257.566406 216.125 260.378906 C 214.867188 263.429688 213.851562 266.535156 212.761719 269.628906 C 211.597656 272.902344 210.34375 276.140625 209.339844 279.488281 C 208.414062 282.582031 207.734375 285.730469 206.949219 288.871094 C 206.097656 292.277344 205.152344 295.636719 204.472656 299.117188 C 204.273438 300.136719 204.132812 301.160156 203.964844 302.183594 C 203.875 302.726562 203.78125 303.269531 203.699219 303.8125 C 203.46875 305.394531 203.242188 306.980469 203.023438 308.570312 L 202.457031 312.410156 C 202.101562 314.636719 201.738281 316.859375 201.523438 319.132812 C 200.859375 325.933594 200.527344 332.757812 200.527344 339.578125 C 200.527344 346.402344 200.855469 353.226562 201.519531 360.003906 C 201.585938 360.679688 201.707031 361.335938 201.792969 362.003906 C 201.925781 363.027344 202.046875 364.050781 202.207031 365.0625 C 202.265625 365.425781 202.300781 365.800781 202.359375 366.164062 L 203.140625 371.550781 C 203.539062 374.378906 203.921875 377.191406 204.464844 380.007812 C 204.617188 380.804688 204.839844 381.574219 205.019531 382.363281 C 205.300781 383.605469 205.578125 384.847656 205.890625 386.074219 C 206.035156 386.652344 206.148438 387.242188 206.300781 387.820312 L 207.527344 392.757812 C 208.085938 395.070312 208.636719 397.382812 209.320312 399.648438 C 209.777344 401.164062 210.320312 402.628906 210.839844 404.113281 C 210.90625 404.3125 210.972656 404.519531 211.046875 404.714844 C 211.339844 405.558594 211.609375 406.421875 211.914062 407.261719 L 213.578125 411.914062 C 214.359375 414.226562 215.167969 416.527344 216.097656 418.777344 C 216.996094 420.976562 218.015625 423.144531 219.039062 425.28125 L 221.359375 430.234375 C 222.414062 432.5625 223.496094 434.875 224.691406 437.128906 C 225.839844 439.285156 227.09375 441.347656 228.347656 443.429688 L 230.792969 447.554688 C 232.132812 449.882812 233.5 452.207031 235.007812 454.492188 C 236.589844 456.875 238.308594 459.167969 240.019531 461.441406 L 243.238281 465.808594 C 244.421875 467.453125 245.632812 469.125 246.941406 470.742188 C 251.339844 476.128906 255.890625 481.242188 260.53125 485.921875 L 404.953125 631.613281 L 549.40625 485.917969 C 554.058594 481.203125 558.628906 476.109375 562.988281 470.738281 C 564.292969 469.117188 565.492188 467.464844 566.6875 465.816406 L 570.035156 461.261719 C 571.714844 459.035156 573.390625 456.800781 574.902344 454.5 C 576.4375 452.210938 577.789062 449.859375 579.152344 447.503906 L 581.660156 443.285156 C 582.027344 442.695312 582.347656 442.078125 582.707031 441.484375 C 582.871094 441.207031 583.027344 440.921875 583.191406 440.644531 C 583.882812 439.472656 584.601562 438.320312 585.238281 437.121094 C 586.546875 434.683594 587.683594 432.183594 588.820312 429.695312 L 590.515625 426.0625 C 590.695312 425.679688 590.859375 425.285156 591.039062 424.902344 C 591.914062 423.0625 592.773438 421.210938 593.566406 419.332031 C 593.648438 419.136719 593.75 418.953125 593.832031 418.757812 C 594.753906 416.535156 595.523438 414.277344 596.320312 412.039062 L 598.128906 406.910156 C 598.160156 406.824219 598.183594 406.734375 598.21875 406.644531 C 598.96875 404.566406 599.703125 402.476562 600.363281 400.355469 C 600.4375 400.121094 600.53125 399.898438 600.597656 399.664062 C 600.621094 399.578125 600.640625 399.492188 600.667969 399.402344 C 601.28125 397.332031 601.792969 395.238281 602.300781 393.144531 C 602.328125 393.019531 602.367188 392.894531 602.398438 392.769531 L 603.652344 387.714844 C 603.691406 387.5625 603.730469 387.402344 603.769531 387.25 C 603.964844 386.492188 604.160156 385.730469 604.347656 384.96875 C 604.707031 383.542969 605.039062 382.109375 605.328125 380.660156 C 605.378906 380.425781 605.441406 380.195312 605.488281 379.957031 C 605.542969 379.675781 605.578125 379.390625 605.628906 379.109375 C 605.914062 377.585938 606.164062 376.054688 606.382812 374.519531 C 606.394531 374.433594 606.40625 374.34375 606.417969 374.257812 C 606.546875 373.347656 606.679688 372.441406 606.800781 371.535156 L 607.609375 366.007812 C 607.621094 365.921875 607.628906 365.832031 607.644531 365.746094 C 607.894531 364.195312 608.109375 362.632812 608.292969 361.0625 C 608.335938 360.714844 608.402344 360.367188 608.441406 360.015625 C 608.785156 356.613281 609.039062 353.191406 609.214844 349.765625 C 609.253906 349 609.242188 348.238281 609.273438 347.472656 C 609.371094 344.835938 609.46875 342.207031 609.472656 339.570312 Z M 404.980469 411.78125 C 365.195312 411.78125 332.828125 379.125 332.828125 338.992188 C 332.828125 298.859375 365.195312 266.207031 404.980469 266.207031 C 444.761719 266.207031 477.132812 298.859375 477.117188 338.992188 C 477.105469 379.128906 444.75 411.78125 404.980469 411.78125 Z M 404.980469 411.78125 " fill-opacity="1" fill-rule="nonzero"/><path fill="#000000" d="M 484.871094 585.617188 L 472.15625 598.4375 C 513.363281 605.453125 537.578125 618.109375 537.578125 627.761719 C 537.578125 641.875 485.929688 662.382812 405.011719 662.382812 C 324.09375 662.382812 272.449219 641.871094 272.449219 627.761719 C 272.449219 618.09375 296.648438 605.453125 337.855469 598.4375 L 325.140625 585.617188 C 286.136719 593.5 257.703125 607.65625 257.703125 627.777344 C 257.703125 660.269531 331.808594 677.269531 405.015625 677.269531 C 478.222656 677.269531 552.332031 660.253906 552.332031 627.777344 C 552.324219 607.675781 523.890625 593.515625 484.871094 585.617188 Z M 484.871094 585.617188 " fill-opacity="1" fill-rule="nonzero"/></svg>