<svg xmlns="http://www.w3.org/2000/svg" xmlns:xlink="http://www.w3.org/1999/xlink" width="1080" zoomAndPan="magnify" viewBox="0 0 810 809.999993" height="1080" preserveAspectRatio="xMidYMid meet" version="1.0"><path fill="#231f20" d="M 675.277344 647.273438 C 679.558594 642.828125 683.726562 638.28125 687.785156 633.628906 C 691.84375 628.980469 695.78125 624.234375 699.605469 619.390625 C 703.429688 614.546875 707.128906 609.609375 710.710938 604.582031 C 714.289062 599.554688 717.742188 594.445312 721.070312 589.246094 C 724.398438 584.050781 727.59375 578.773438 730.664062 573.417969 C 733.730469 568.0625 736.664062 562.636719 739.460938 557.136719 C 742.261719 551.636719 744.921875 546.070312 747.449219 540.441406 C 749.972656 534.808594 752.355469 529.117188 754.601562 523.371094 C 756.84375 517.621094 758.945312 511.820312 760.902344 505.96875 C 762.859375 500.117188 764.671875 494.21875 766.339844 488.277344 C 768.003906 482.335938 769.523438 476.355469 770.898438 470.339844 C 772.269531 464.324219 773.492188 458.277344 774.5625 452.199219 C 775.636719 446.125 776.558594 440.023438 777.332031 433.902344 C 778.105469 427.777344 778.726562 421.640625 779.195312 415.488281 C 779.664062 409.335938 779.980469 403.175781 780.148438 397.003906 C 780.3125 390.835938 780.324219 384.667969 780.1875 378.5 C 780.046875 372.328125 779.757812 366.167969 779.3125 360.011719 C 778.871094 353.855469 778.277344 347.714844 777.53125 341.589844 C 776.785156 335.464844 775.886719 329.359375 774.839844 323.28125 C 773.792969 317.199219 772.597656 311.144531 771.25 305.125 C 769.90625 299.101562 768.410156 293.117188 766.769531 287.167969 C 765.128906 281.21875 763.34375 275.3125 761.410156 269.453125 C 759.476562 263.59375 757.402344 257.78125 755.183594 252.023438 C 752.964844 246.265625 750.601562 240.566406 748.101562 234.925781 C 745.601562 229.28125 742.964844 223.707031 740.1875 218.195312 C 737.414062 212.683594 734.503906 207.242188 731.460938 201.875 C 728.414062 196.507812 725.242188 191.21875 721.933594 186.003906 C 718.628906 180.792969 715.199219 175.667969 711.640625 170.625 C 708.082031 165.582031 704.402344 160.632812 700.601562 155.769531 C 696.796875 150.910156 692.878906 146.144531 688.839844 141.480469 C 684.804688 136.8125 680.652344 132.246094 676.390625 127.785156 C 672.128906 123.320312 667.757812 118.964844 663.28125 114.71875 C 658.800781 110.472656 654.222656 106.339844 649.539062 102.316406 C 644.859375 98.296875 640.082031 94.394531 635.207031 90.609375 C 630.332031 86.824219 625.367188 83.160156 620.3125 79.617188 C 615.257812 76.078125 610.121094 72.664062 604.894531 69.378906 C 599.671875 66.089844 594.371094 62.933594 588.992188 59.910156 C 583.613281 56.882812 578.164062 53.992188 572.640625 51.234375 C 567.121094 48.480469 561.53125 45.859375 555.882812 43.378906 C 550.230469 40.898438 544.523438 38.558594 538.753906 36.359375 C 532.988281 34.160156 527.171875 32.105469 521.304688 30.191406 C 515.4375 28.277344 509.523438 26.511719 503.570312 24.890625 C 497.613281 23.269531 491.625 21.796875 485.59375 20.472656 C 479.566406 19.148438 473.511719 17.972656 467.425781 16.945312 C 461.339844 15.917969 455.230469 15.042969 449.101562 14.316406 C 442.972656 13.59375 436.832031 13.019531 430.671875 12.597656 C 424.515625 12.175781 418.351562 11.90625 412.183594 11.785156 C 406.011719 11.667969 399.839844 11.703125 393.671875 11.890625 C 387.503906 12.074219 381.34375 12.414062 375.191406 12.902344 C 369.039062 13.394531 362.902344 14.035156 356.78125 14.828125 C 350.660156 15.621094 344.5625 16.566406 338.488281 17.660156 C 332.414062 18.753906 326.371094 19.996094 320.359375 21.386719 C 314.347656 22.777344 308.371094 24.316406 302.433594 26.003906 C 296.5 27.691406 290.605469 29.523438 284.761719 31.5 C 278.914062 33.476562 273.121094 35.597656 267.378906 37.859375 C 261.636719 40.125 255.953125 42.527344 250.332031 45.070312 C 244.707031 47.613281 239.152344 50.292969 233.660156 53.113281 C 228.167969 55.929688 222.75 58.878906 217.40625 61.964844 C 212.058594 65.050781 206.792969 68.265625 201.605469 71.609375 C 196.421875 74.953125 191.320312 78.425781 186.304688 82.019531 C 181.289062 85.617188 176.363281 89.335938 171.53125 93.171875 C 166.703125 97.011719 161.96875 100.96875 157.328125 105.042969 C 152.691406 109.113281 148.160156 113.296875 143.730469 117.59375 C 139.300781 121.890625 134.976562 126.292969 130.765625 130.804688 C 126.550781 135.3125 122.453125 139.921875 118.464844 144.636719 C 114.480469 149.347656 110.613281 154.152344 106.867188 159.054688 C 103.117188 163.957031 99.492188 168.949219 95.988281 174.03125 C 92.488281 179.113281 89.113281 184.277344 85.867188 189.527344 C 82.621094 194.773438 79.503906 200.097656 76.519531 205.5 C 73.535156 210.902344 70.683594 216.371094 67.96875 221.914062 C 65.257812 227.457031 62.679688 233.0625 60.242188 238.730469 C 57.804688 244.402344 55.507812 250.125 53.351562 255.910156 C 51.195312 261.691406 49.1875 267.523438 47.316406 273.40625 C 45.449219 279.285156 43.730469 285.210938 42.152344 291.175781 C 40.578125 297.144531 39.152344 303.144531 37.871094 309.183594 C 36.59375 315.21875 35.464844 321.285156 34.484375 327.375 C 33.503906 333.46875 32.675781 339.582031 31.996094 345.714844 C 31.320312 351.851562 30.792969 357.996094 30.417969 364.15625 C 30.042969 370.316406 29.820312 376.480469 29.75 382.652344 C 29.679688 388.820312 29.761719 394.988281 29.992188 401.15625 C 30.226562 407.324219 30.613281 413.480469 31.152344 419.628906 C 31.6875 425.773438 32.378906 431.90625 33.21875 438.019531 C 34.058594 444.132812 35.046875 450.222656 36.1875 456.285156 C 37.328125 462.351562 38.617188 468.382812 40.054688 474.386719 C 41.492188 480.386719 43.078125 486.347656 44.8125 492.269531 C 46.542969 498.195312 48.421875 504.070312 50.445312 509.902344 C 52.464844 515.730469 54.632812 521.507812 56.9375 527.230469 C 59.246094 532.953125 61.691406 538.617188 64.28125 544.21875 C 66.867188 549.824219 69.589844 555.359375 72.449219 560.828125 C 75.308594 566.296875 78.304688 571.691406 81.429688 577.011719 C 84.554688 582.332031 87.8125 587.570312 91.195312 592.730469 C 94.578125 597.890625 98.089844 602.964844 101.726562 607.953125 C 105.359375 612.941406 109.117188 617.835938 112.992188 622.636719 C 116.871094 627.4375 120.863281 632.140625 124.96875 636.746094 C 129.078125 641.351562 133.300781 645.851562 137.628906 650.246094 C 141.960938 654.644531 146.398438 658.929688 150.9375 663.109375 L 129.683594 756.136719 C 129.386719 757.441406 129.160156 758.753906 129 760.082031 C 128.84375 761.410156 128.753906 762.742188 128.734375 764.078125 C 128.714844 765.417969 128.765625 766.75 128.886719 768.082031 C 129.007812 769.414062 129.195312 770.734375 129.453125 772.046875 C 129.710938 773.359375 130.039062 774.65625 130.429688 775.933594 C 130.824219 777.210938 131.28125 778.464844 131.808594 779.695312 C 132.332031 780.925781 132.917969 782.125 133.570312 783.292969 C 134.21875 784.460938 134.925781 785.59375 135.695312 786.6875 C 136.460938 787.78125 137.285156 788.832031 138.164062 789.84375 C 139.039062 790.851562 139.96875 791.8125 140.945312 792.722656 C 141.925781 793.632812 142.949219 794.492188 144.015625 795.296875 C 145.082031 796.101562 146.191406 796.851562 147.335938 797.539062 C 148.480469 798.230469 149.660156 798.855469 150.871094 799.421875 C 152.082031 799.988281 153.320312 800.492188 154.582031 800.929688 C 155.847656 801.367188 157.128906 801.734375 158.433594 802.039062 C 159.734375 802.34375 161.050781 802.578125 162.375 802.742188 C 163.882812 802.742188 165.386719 803.007812 166.851562 803.007812 C 167.953125 802.980469 169.054688 802.910156 170.148438 802.796875 C 171.246094 802.679688 172.335938 802.519531 173.417969 802.3125 C 174.5 802.105469 175.570312 801.855469 176.632812 801.558594 C 177.695312 801.261719 178.742188 800.921875 179.773438 800.539062 C 180.808594 800.15625 181.824219 799.734375 182.820312 799.265625 C 183.820312 798.796875 184.796875 798.289062 185.75 797.742188 C 186.707031 797.195312 187.636719 796.605469 188.546875 795.980469 C 189.453125 795.355469 190.332031 794.695312 191.183594 793.996094 C 192.035156 793.296875 192.855469 792.5625 193.648438 791.796875 C 194.4375 791.027344 195.195312 790.230469 195.921875 789.398438 C 196.644531 788.570312 197.335938 787.710938 197.988281 786.824219 C 198.640625 785.9375 199.253906 785.023438 199.832031 784.085938 C 200.410156 783.148438 200.949219 782.1875 201.445312 781.203125 C 201.941406 780.21875 202.398438 779.21875 202.8125 778.195312 C 203.226562 777.175781 203.597656 776.140625 203.925781 775.089844 C 204.253906 774.035156 204.535156 772.972656 204.777344 771.898438 L 218.359375 712.574219 C 222.128906 714.75 225.933594 716.855469 229.777344 718.894531 C 233.621094 720.9375 237.496094 722.910156 241.410156 724.816406 C 245.320312 726.71875 249.265625 728.554688 253.242188 730.324219 C 257.214844 732.089844 261.222656 733.789062 265.257812 735.414062 C 269.292969 737.042969 273.355469 738.597656 277.445312 740.085938 C 281.535156 741.570312 285.648438 742.984375 289.789062 744.324219 C 293.929688 745.667969 298.089844 746.9375 302.273438 748.132812 C 306.457031 749.328125 310.660156 750.453125 314.882812 751.5 C 319.105469 752.550781 323.34375 753.527344 327.601562 754.425781 C 331.859375 755.328125 336.128906 756.15625 340.417969 756.90625 C 344.703125 757.660156 349 758.335938 353.308594 758.9375 C 357.617188 759.539062 361.9375 760.066406 366.265625 760.515625 C 370.59375 760.96875 374.925781 761.34375 379.269531 761.644531 C 383.609375 761.941406 387.953125 762.167969 392.304688 762.316406 C 396.652344 762.460938 401 762.535156 405.351562 762.53125 C 409.703125 762.527344 414.054688 762.445312 418.402344 762.289062 C 422.75 762.132812 427.09375 761.902344 431.4375 761.59375 C 435.777344 761.285156 440.109375 760.902344 444.4375 760.441406 C 448.765625 759.984375 453.082031 759.449219 457.390625 758.839844 C 461.699219 758.226562 465.996094 757.542969 470.277344 756.78125 C 474.5625 756.023438 478.832031 755.1875 483.089844 754.277344 C 487.34375 753.367188 491.582031 752.386719 495.800781 751.328125 C 500.023438 750.269531 504.222656 749.140625 508.40625 747.933594 C 512.585938 746.730469 516.746094 745.453125 520.882812 744.105469 C 525.019531 742.753906 529.128906 741.332031 533.21875 739.839844 C 537.304688 738.347656 541.363281 736.78125 545.394531 735.148438 C 549.429688 733.511719 553.429688 731.808594 557.402344 730.03125 C 561.375 728.257812 565.316406 726.414062 569.226562 724.5 C 573.132812 722.589844 577.007812 720.609375 580.847656 718.558594 C 584.683594 716.511719 588.488281 714.398438 592.253906 712.21875 C 596.019531 710.035156 599.742188 707.789062 603.429688 705.480469 C 607.117188 703.167969 610.761719 700.792969 614.367188 698.355469 L 636.9375 746.582031 C 637.710938 748.226562 638.59375 749.8125 639.589844 751.335938 C 640.585938 752.859375 641.683594 754.300781 642.882812 755.667969 C 644.082031 757.035156 645.375 758.308594 646.757812 759.492188 C 648.136719 760.675781 649.597656 761.753906 651.132812 762.730469 C 652.667969 763.707031 654.261719 764.570312 655.917969 765.320312 C 657.578125 766.070312 659.277344 766.699219 661.027344 767.207031 C 662.773438 767.714844 664.546875 768.097656 666.347656 768.351562 C 668.148438 768.609375 669.957031 768.738281 671.777344 768.738281 C 672.578125 768.734375 673.375 768.707031 674.175781 768.652344 C 674.972656 768.597656 675.769531 768.519531 676.5625 768.417969 C 677.355469 768.3125 678.144531 768.1875 678.929688 768.035156 C 679.714844 767.882812 680.496094 767.703125 681.269531 767.503906 C 682.042969 767.300781 682.808594 767.078125 683.570312 766.828125 C 684.328125 766.578125 685.082031 766.304688 685.824219 766.007812 C 686.566406 765.710938 687.300781 765.394531 688.023438 765.050781 C 688.746094 764.710938 689.457031 764.34375 690.160156 763.957031 C 690.859375 763.570312 691.546875 763.164062 692.222656 762.734375 C 692.898438 762.304688 693.558594 761.855469 694.203125 761.382812 C 694.851562 760.914062 695.480469 760.421875 696.097656 759.910156 C 696.714844 759.402344 697.3125 758.871094 697.894531 758.324219 C 698.480469 757.777344 699.042969 757.210938 699.589844 756.628906 C 700.140625 756.042969 700.667969 755.445312 701.179688 754.828125 C 701.6875 754.210938 702.179688 753.582031 702.648438 752.933594 C 703.117188 752.285156 703.570312 751.625 703.996094 750.949219 C 704.425781 750.277344 704.835938 749.585938 705.21875 748.886719 C 705.605469 748.1875 705.96875 747.476562 706.3125 746.75 C 706.652344 746.027344 706.972656 745.292969 707.269531 744.550781 C 707.5625 743.808594 707.835938 743.058594 708.085938 742.296875 C 708.332031 741.535156 708.558594 740.769531 708.757812 739.996094 C 708.960938 739.21875 709.136719 738.441406 709.289062 737.65625 C 709.441406 736.871094 709.566406 736.082031 709.667969 735.289062 C 709.773438 734.496094 709.847656 733.699219 709.902344 732.902344 C 709.957031 732.101562 709.984375 731.304688 709.984375 730.503906 C 709.988281 729.703125 709.964844 728.90625 709.917969 728.105469 C 709.871094 727.308594 709.800781 726.511719 709.703125 725.71875 C 709.605469 724.921875 709.484375 724.132812 709.339844 723.347656 C 709.191406 722.5625 709.019531 721.78125 708.824219 721.003906 C 708.628906 720.226562 708.410156 719.460938 708.167969 718.699219 C 707.925781 717.933594 707.65625 717.183594 707.367188 716.4375 C 707.078125 715.691406 706.761719 714.957031 706.425781 714.230469 Z M 603.117188 674.09375 C 599.6875 676.472656 596.21875 678.789062 592.707031 681.042969 C 589.191406 683.296875 585.640625 685.484375 582.050781 687.613281 C 578.457031 689.738281 574.832031 691.796875 571.164062 693.792969 C 567.5 695.789062 563.796875 697.714844 560.0625 699.578125 C 556.328125 701.4375 552.5625 703.234375 548.761719 704.957031 C 544.960938 706.683594 541.132812 708.339844 537.273438 709.929688 C 533.414062 711.515625 529.527344 713.035156 525.613281 714.480469 C 521.699219 715.929688 517.757812 717.304688 513.792969 718.613281 C 509.832031 719.917969 505.84375 721.152344 501.835938 722.3125 C 497.828125 723.476562 493.800781 724.5625 489.75 725.582031 C 485.703125 726.597656 481.640625 727.539062 477.558594 728.410156 C 473.476562 729.28125 469.378906 730.078125 465.269531 730.800781 C 461.160156 731.523438 457.035156 732.171875 452.902344 732.746094 C 448.769531 733.316406 444.625 733.816406 440.476562 734.242188 C 436.324219 734.667969 432.164062 735.015625 428 735.289062 C 423.835938 735.566406 419.667969 735.765625 415.496094 735.890625 C 411.324219 736.011719 407.152344 736.0625 402.980469 736.035156 C 398.804688 736.011719 394.632812 735.910156 390.464844 735.734375 C 386.292969 735.554688 382.128906 735.304688 377.96875 734.976562 C 373.808594 734.652344 369.65625 734.25 365.507812 733.773438 C 361.363281 733.296875 357.226562 732.746094 353.101562 732.121094 C 348.972656 731.496094 344.859375 730.796875 340.757812 730.023438 C 336.65625 729.25 332.574219 728.402344 328.5 727.480469 C 324.429688 726.558594 320.378906 725.566406 316.34375 724.496094 C 312.308594 723.429688 308.296875 722.289062 304.300781 721.078125 C 300.308594 719.867188 296.335938 718.582031 292.390625 717.230469 C 288.441406 715.875 284.523438 714.449219 280.625 712.953125 C 276.730469 711.457031 272.863281 709.890625 269.023438 708.253906 C 265.183594 706.617188 261.375 704.914062 257.597656 703.140625 C 253.820312 701.367188 250.074219 699.527344 246.363281 697.617188 C 242.652344 695.710938 238.976562 693.734375 235.335938 691.695312 C 231.695312 689.652344 228.09375 687.546875 224.527344 685.378906 L 238.449219 624.476562 C 241.535156 626.65625 244.667969 628.773438 247.839844 630.828125 C 251.011719 632.882812 254.222656 634.875 257.476562 636.804688 C 260.726562 638.734375 264.011719 640.601562 267.335938 642.398438 C 270.660156 644.199219 274.019531 645.933594 277.410156 647.605469 C 280.804688 649.273438 284.226562 650.875 287.683594 652.40625 C 291.136719 653.941406 294.621094 655.40625 298.132812 656.804688 C 301.644531 658.203125 305.183594 659.53125 308.75 660.789062 C 312.316406 662.046875 315.902344 663.234375 319.515625 664.351562 C 323.125 665.46875 326.757812 666.515625 330.410156 667.488281 C 334.0625 668.464844 337.734375 669.367188 341.421875 670.199219 C 345.109375 671.027344 348.8125 671.785156 352.527344 672.472656 C 356.246094 673.15625 359.976562 673.769531 363.71875 674.308594 C 367.460938 674.847656 371.210938 675.3125 374.972656 675.703125 C 378.730469 676.09375 382.496094 676.410156 386.269531 676.65625 C 390.042969 676.898438 393.820312 677.066406 397.597656 677.164062 C 401.375 677.257812 405.15625 677.28125 408.9375 677.226562 C 412.714844 677.171875 416.492188 677.046875 420.269531 676.84375 C 424.042969 676.640625 427.8125 676.367188 431.578125 676.015625 C 435.34375 675.667969 439.097656 675.246094 442.84375 674.746094 C 446.59375 674.25 450.328125 673.679688 454.054688 673.035156 C 457.78125 672.390625 461.492188 671.675781 465.1875 670.886719 C 468.882812 670.097656 472.566406 669.234375 476.226562 668.300781 C 479.890625 667.367188 483.535156 666.359375 487.15625 665.285156 C 490.78125 664.207031 494.382812 663.058594 497.960938 661.839844 C 501.539062 660.621094 505.09375 659.332031 508.621094 657.976562 C 512.148438 656.617188 515.648438 655.191406 519.121094 653.695312 C 522.59375 652.199219 526.035156 650.636719 529.445312 649.003906 C 532.855469 647.375 536.230469 645.675781 539.574219 643.914062 C 542.917969 642.148438 546.226562 640.320312 549.5 638.429688 C 552.769531 636.535156 556.003906 634.578125 559.199219 632.558594 C 562.394531 630.539062 565.550781 628.457031 568.664062 626.3125 C 571.777344 624.167969 574.847656 621.964844 577.871094 619.699219 Z M 165.6875 776.5625 C 165.269531 776.515625 164.855469 776.445312 164.445312 776.355469 C 164.035156 776.261719 163.632812 776.152344 163.234375 776.015625 C 162.835938 775.882812 162.445312 775.730469 162.066406 775.554688 C 161.683594 775.378906 161.3125 775.1875 160.949219 774.972656 C 160.589844 774.757812 160.238281 774.527344 159.902344 774.277344 C 159.566406 774.027344 159.242188 773.757812 158.933594 773.472656 C 158.625 773.191406 158.332031 772.890625 158.054688 772.574219 C 157.777344 772.261719 157.519531 771.929688 157.277344 771.589844 C 157.03125 771.246094 156.808594 770.890625 156.605469 770.527344 C 156.398438 770.160156 156.214844 769.785156 156.046875 769.398438 C 155.882812 769.011719 155.738281 768.617188 155.613281 768.21875 C 155.488281 767.816406 155.386719 767.410156 155.304688 767 C 155.222656 766.585938 155.164062 766.171875 155.125 765.753906 C 155.085938 765.335938 155.070312 764.917969 155.078125 764.496094 C 155.082031 764.078125 155.113281 763.660156 155.164062 763.242188 C 155.210938 762.824219 155.285156 762.414062 155.378906 762.003906 L 269.148438 264.257812 C 271.214844 265.132812 273.242188 266.09375 275.222656 267.144531 C 277.207031 268.199219 279.140625 269.332031 281.027344 270.554688 C 282.910156 271.773438 284.738281 273.074219 286.511719 274.453125 C 288.28125 275.835938 289.988281 277.289062 291.632812 278.816406 C 293.277344 280.347656 294.851562 281.945312 296.355469 283.609375 C 297.859375 285.277344 299.289062 287.003906 300.644531 288.796875 C 301.996094 290.585938 303.269531 292.433594 304.460938 294.335938 C 305.652344 296.238281 306.761719 298.1875 307.785156 300.1875 C 308.804688 302.1875 309.738281 304.226562 310.582031 306.308594 C 311.425781 308.386719 312.179688 310.5 312.839844 312.644531 C 313.496094 314.792969 314.0625 316.960938 314.53125 319.15625 C 315.003906 321.351562 315.375 323.5625 315.652344 325.792969 C 315.929688 328.019531 316.109375 330.253906 316.191406 332.5 C 316.273438 334.742188 316.257812 336.984375 316.144531 339.226562 C 316.03125 341.46875 315.816406 343.703125 315.507812 345.925781 C 315.199219 348.148438 314.796875 350.355469 314.292969 352.542969 L 272.683594 535.550781 C 271.238281 535.5625 269.792969 535.632812 268.355469 535.765625 C 266.914062 535.898438 265.480469 536.089844 264.054688 536.34375 C 262.632812 536.59375 261.222656 536.90625 259.824219 537.277344 C 258.425781 537.648438 257.042969 538.074219 255.683594 538.558594 C 254.320312 539.046875 252.980469 539.589844 251.664062 540.1875 C 250.34375 540.785156 249.054688 541.433594 247.792969 542.140625 C 246.53125 542.847656 245.300781 543.601562 244.101562 544.410156 C 242.902344 545.21875 241.738281 546.078125 240.609375 546.984375 C 239.480469 547.890625 238.394531 548.839844 237.347656 549.835938 C 236.296875 550.835938 235.292969 551.875 234.332031 552.953125 C 233.371094 554.035156 232.457031 555.152344 231.589844 556.3125 C 230.722656 557.46875 229.90625 558.660156 229.136719 559.886719 C 228.367188 561.109375 227.652344 562.367188 226.992188 563.652344 C 226.328125 564.9375 225.71875 566.25 225.167969 567.585938 C 224.613281 568.921875 224.117188 570.277344 223.675781 571.65625 C 223.238281 573.035156 222.855469 574.429688 222.535156 575.835938 L 179.082031 765.914062 C 178.945312 766.628906 178.75 767.328125 178.5 768.011719 C 178.246094 768.695312 177.941406 769.351562 177.582031 769.984375 C 177.222656 770.617188 176.816406 771.21875 176.355469 771.785156 C 175.898438 772.347656 175.398438 772.875 174.855469 773.355469 C 174.308594 773.839844 173.730469 774.273438 173.113281 774.664062 C 172.5 775.050781 171.855469 775.386719 171.183594 775.667969 C 170.515625 775.949219 169.824219 776.175781 169.117188 776.34375 C 168.410156 776.511719 167.691406 776.625 166.964844 776.675781 C 166.535156 776.675781 166.109375 776.636719 165.6875 776.5625 Z M 404.960938 38.367188 C 409.15625 38.367188 413.347656 38.441406 417.535156 38.59375 C 421.726562 38.742188 425.910156 38.96875 430.09375 39.273438 C 434.273438 39.574219 438.449219 39.949219 442.617188 40.402344 C 446.785156 40.855469 450.945312 41.382812 455.09375 41.984375 C 459.242188 42.585938 463.378906 43.265625 467.503906 44.015625 C 471.628906 44.769531 475.738281 45.59375 479.832031 46.492188 C 483.925781 47.390625 488.003906 48.367188 492.0625 49.414062 C 496.121094 50.457031 500.164062 51.578125 504.183594 52.769531 C 508.199219 53.964844 512.199219 55.226562 516.171875 56.5625 C 520.144531 57.898438 524.09375 59.308594 528.015625 60.785156 C 531.9375 62.265625 535.835938 63.8125 539.703125 65.433594 C 543.570312 67.050781 547.40625 68.742188 551.210938 70.5 C 555.015625 72.257812 558.789062 74.082031 562.53125 75.976562 C 566.269531 77.867188 569.976562 79.828125 573.644531 81.855469 C 577.316406 83.882812 580.949219 85.976562 584.542969 88.132812 C 588.136719 90.292969 591.691406 92.515625 595.203125 94.800781 C 598.71875 97.085938 602.191406 99.4375 605.621094 101.847656 C 609.046875 104.257812 612.433594 106.730469 615.773438 109.265625 C 619.113281 111.796875 622.40625 114.390625 625.652344 117.042969 C 628.902344 119.695312 632.097656 122.40625 635.246094 125.171875 C 638.394531 127.941406 641.492188 130.761719 644.542969 133.640625 C 647.589844 136.519531 650.582031 139.453125 653.523438 142.441406 C 656.464844 145.429688 659.351562 148.46875 662.183594 151.558594 C 665.015625 154.652344 667.789062 157.792969 670.507812 160.984375 C 673.226562 164.175781 675.886719 167.414062 678.488281 170.699219 C 681.089844 173.988281 683.632812 177.320312 686.113281 180.699219 C 688.59375 184.078125 691.015625 187.5 693.371094 190.96875 C 695.730469 194.433594 698.023438 197.941406 700.257812 201.488281 C 702.488281 205.039062 704.65625 208.625 706.757812 212.253906 C 708.859375 215.878906 710.894531 219.542969 712.863281 223.242188 C 714.835938 226.945312 716.738281 230.679688 718.574219 234.449219 C 720.40625 238.214844 722.175781 242.015625 723.871094 245.851562 C 725.570312 249.683594 727.199219 253.542969 728.757812 257.4375 C 730.316406 261.328125 731.804688 265.246094 733.222656 269.191406 C 734.640625 273.136719 735.988281 277.105469 737.261719 281.097656 C 738.535156 285.089844 739.738281 289.105469 740.867188 293.144531 C 741.996094 297.179688 743.054688 301.238281 744.039062 305.3125 C 745.019531 309.386719 745.929688 313.476562 746.765625 317.585938 C 747.601562 321.695312 748.363281 325.816406 749.050781 329.949219 C 749.738281 334.085938 750.351562 338.230469 750.886719 342.390625 C 751.425781 346.546875 751.886719 350.710938 752.277344 354.886719 C 752.664062 359.058594 752.976562 363.238281 753.210938 367.425781 C 753.449219 371.609375 753.609375 375.796875 753.695312 379.988281 C 753.78125 384.179688 753.789062 388.371094 753.726562 392.5625 C 753.660156 396.753906 753.519531 400.941406 753.300781 405.128906 C 753.085938 409.316406 752.792969 413.496094 752.425781 417.671875 C 752.058594 421.847656 751.617188 426.015625 751.097656 430.175781 C 750.582031 434.335938 749.988281 438.484375 749.320312 442.625 C 748.652344 446.761719 747.914062 450.886719 747.097656 455 C 746.28125 459.109375 745.390625 463.207031 744.425781 467.285156 C 743.460938 471.367188 742.425781 475.425781 741.316406 479.46875 C 740.207031 483.511719 739.023438 487.53125 737.765625 491.53125 C 736.511719 495.53125 735.183594 499.507812 733.785156 503.457031 C 732.386719 507.410156 730.917969 511.335938 729.378906 515.234375 C 727.835938 519.132812 726.226562 523.003906 724.546875 526.84375 C 722.867188 530.683594 721.121094 534.492188 719.300781 538.269531 C 717.484375 542.046875 715.601562 545.792969 713.648438 549.503906 C 711.695312 553.210938 709.679688 556.886719 707.59375 560.523438 C 705.507812 564.160156 703.359375 567.757812 701.144531 571.316406 C 698.929688 574.875 696.652344 578.394531 694.3125 581.871094 C 691.96875 585.347656 689.566406 588.785156 687.101562 592.175781 C 684.636719 595.566406 682.109375 598.910156 679.523438 602.210938 C 676.9375 605.507812 674.296875 608.761719 671.59375 611.964844 C 668.890625 615.171875 666.128906 618.324219 663.3125 621.429688 L 635.808594 562.296875 C 639.273438 557.734375 642.601562 553.070312 645.789062 548.3125 C 648.976562 543.550781 652.023438 538.699219 654.921875 533.761719 C 657.824219 528.820312 660.574219 523.796875 663.179688 518.695312 C 665.78125 513.589844 668.230469 508.414062 670.527344 503.167969 C 672.824219 497.917969 674.964844 492.605469 676.945312 487.230469 C 678.925781 481.855469 680.746094 476.425781 682.40625 470.941406 C 684.066406 465.460938 685.5625 459.933594 686.894531 454.359375 C 688.226562 448.789062 689.390625 443.183594 690.390625 437.539062 C 691.390625 431.898438 692.222656 426.234375 692.886719 420.542969 C 693.550781 414.855469 694.042969 409.148438 694.371094 403.429688 C 694.695312 397.710938 694.851562 391.984375 694.839844 386.257812 C 694.824219 380.527344 694.640625 374.804688 694.289062 369.085938 C 693.9375 363.367188 693.414062 357.667969 692.722656 351.980469 C 692.03125 346.292969 691.171875 340.628906 690.148438 334.996094 C 689.121094 329.359375 687.929688 323.757812 686.570312 318.191406 C 685.210938 312.625 683.6875 307.105469 682.003906 301.628906 C 680.316406 296.15625 678.472656 290.734375 676.464844 285.367188 C 674.457031 280.003906 672.292969 274.703125 669.972656 269.464844 C 667.652344 264.226562 665.175781 259.0625 662.550781 253.972656 C 659.921875 248.878906 657.144531 243.871094 654.222656 238.945312 C 651.296875 234.019531 648.230469 229.183594 645.019531 224.4375 C 641.808594 219.691406 638.460938 215.046875 634.972656 210.5 C 631.488281 205.953125 627.871094 201.515625 624.121094 197.183594 C 620.371094 192.851562 616.496094 188.632812 612.496094 184.53125 C 608.5 180.429688 604.382812 176.449219 600.144531 172.589844 C 595.910156 168.734375 591.566406 165.003906 587.109375 161.402344 C 582.652344 157.800781 578.09375 154.335938 573.429688 151.003906 C 568.769531 147.675781 564.011719 144.484375 559.164062 141.433594 C 554.3125 138.386719 549.375 135.484375 544.351562 132.726562 C 539.328125 129.972656 534.230469 127.367188 529.050781 124.910156 C 523.875 122.457031 518.628906 120.160156 513.316406 118.015625 C 508.003906 115.871094 502.628906 113.886719 497.199219 112.0625 C 491.769531 110.238281 486.289062 108.578125 480.757812 107.074219 C 475.226562 105.574219 469.660156 104.242188 464.050781 103.070312 C 458.441406 101.902344 452.804688 100.898438 447.132812 100.0625 C 441.464844 99.226562 435.777344 98.558594 430.070312 98.058594 C 424.363281 97.558594 418.644531 97.230469 412.917969 97.070312 C 407.191406 96.910156 401.464844 96.921875 395.738281 97.097656 C 390.011719 97.277344 384.292969 97.628906 378.585938 98.144531 C 372.882812 98.664062 367.195312 99.351562 361.53125 100.203125 C 355.863281 101.058594 350.230469 102.082031 344.625 103.269531 C 339.019531 104.460938 333.453125 105.8125 327.929688 107.332031 C 322.40625 108.851562 316.929688 110.53125 311.503906 112.375 C 306.082031 114.21875 300.714844 116.21875 295.410156 118.378906 C 290.101562 120.542969 284.863281 122.855469 279.695312 125.328125 C 274.527344 127.800781 269.4375 130.421875 264.421875 133.195312 C 259.410156 135.96875 254.480469 138.886719 249.640625 141.953125 C 244.800781 145.019531 240.054688 148.222656 235.402344 151.570312 C 230.753906 154.914062 226.207031 158.398438 221.761719 162.011719 C 217.316406 165.628906 212.984375 169.371094 208.761719 173.246094 C 204.539062 177.117188 200.4375 181.113281 196.449219 185.226562 C 192.464844 189.34375 188.605469 193.574219 184.871094 197.917969 C 181.136719 202.261719 177.53125 206.714844 174.0625 211.269531 C 170.589844 215.828125 167.257812 220.484375 164.0625 225.242188 C 160.867188 229.996094 157.816406 234.84375 154.90625 239.777344 C 152 244.714844 149.242188 249.734375 146.632812 254.832031 C 144.019531 259.933594 141.5625 265.105469 139.261719 270.351562 C 136.957031 275.597656 134.808594 280.90625 132.820312 286.277344 C 130.832031 291.648438 129.003906 297.078125 127.335938 302.558594 C 125.667969 308.039062 124.164062 313.5625 122.824219 319.132812 C 121.484375 324.703125 120.3125 330.308594 119.304688 335.949219 C 118.296875 341.585938 117.457031 347.253906 116.785156 352.941406 C 116.113281 358.632812 115.609375 364.335938 115.277344 370.054688 C 114.941406 375.773438 114.777344 381.496094 114.785156 387.226562 C 114.769531 395.066406 115.078125 402.898438 115.703125 410.714844 C 116.332031 418.53125 117.28125 426.308594 118.546875 434.046875 C 119.8125 441.785156 121.394531 449.460938 123.292969 457.066406 C 125.1875 464.675781 127.394531 472.195312 129.90625 479.625 C 132.421875 487.050781 135.234375 494.363281 138.347656 501.5625 C 141.460938 508.757812 144.867188 515.816406 148.558594 522.734375 C 152.25 529.652344 156.222656 536.40625 160.46875 543 C 164.71875 549.589844 169.226562 556 174 562.21875 L 157.636719 633.164062 C 154.617188 630.136719 151.652344 627.050781 148.746094 623.910156 C 145.839844 620.773438 142.992188 617.582031 140.203125 614.335938 C 137.414062 611.09375 134.683594 607.800781 132.015625 604.453125 C 129.347656 601.109375 126.742188 597.71875 124.199219 594.277344 C 121.65625 590.835938 119.179688 587.351562 116.761719 583.820312 C 114.347656 580.289062 112 576.714844 109.714844 573.09375 C 107.433594 569.476562 105.21875 565.820312 103.070312 562.121094 C 100.921875 558.421875 98.839844 554.683594 96.832031 550.90625 C 94.820312 547.128906 92.878906 543.320312 91.007812 539.472656 C 89.136719 535.625 87.339844 531.742188 85.613281 527.828125 C 83.882812 523.914062 82.230469 519.972656 80.644531 515.996094 C 79.0625 512.023438 77.554688 508.019531 76.121094 503.988281 C 74.683594 499.960938 73.324219 495.90625 72.039062 491.824219 C 70.753906 487.746094 69.542969 483.640625 68.40625 479.515625 C 67.273438 475.390625 66.214844 471.25 65.230469 467.085938 C 64.25 462.921875 63.34375 458.742188 62.515625 454.542969 C 61.6875 450.347656 60.9375 446.136719 60.265625 441.910156 C 59.589844 437.6875 58.996094 433.449219 58.476562 429.203125 C 57.960938 424.957031 57.519531 420.703125 57.160156 416.441406 C 56.800781 412.179688 56.515625 407.910156 56.3125 403.636719 C 56.109375 399.363281 55.984375 395.089844 55.9375 390.8125 C 55.890625 386.53125 55.925781 382.257812 56.035156 377.980469 C 56.148438 373.703125 56.335938 369.429688 56.605469 365.160156 C 56.875 360.890625 57.222656 356.628906 57.644531 352.371094 C 58.070312 348.113281 58.574219 343.867188 59.15625 339.628906 C 59.738281 335.390625 60.398438 331.164062 61.136719 326.949219 C 61.871094 322.738281 62.6875 318.539062 63.578125 314.355469 C 64.472656 310.167969 65.441406 306.003906 66.484375 301.855469 C 67.53125 297.707031 68.652344 293.578125 69.847656 289.472656 C 71.046875 285.363281 72.320312 281.28125 73.664062 277.222656 C 75.011719 273.160156 76.433594 269.128906 77.929688 265.121094 C 79.425781 261.109375 80.996094 257.132812 82.640625 253.183594 C 84.28125 249.230469 85.996094 245.3125 87.78125 241.425781 C 89.570312 237.539062 91.425781 233.6875 93.355469 229.867188 C 95.285156 226.050781 97.28125 222.265625 99.351562 218.523438 C 101.417969 214.777344 103.554688 211.070312 105.757812 207.40625 C 107.964844 203.738281 110.234375 200.113281 112.570312 196.53125 C 114.910156 192.949219 117.3125 189.410156 119.78125 185.914062 C 122.25 182.421875 124.78125 178.972656 127.375 175.570312 C 129.96875 172.167969 132.625 168.816406 135.34375 165.511719 C 138.0625 162.210938 140.839844 158.957031 143.679688 155.757812 C 146.515625 152.554688 149.414062 149.40625 152.367188 146.3125 C 155.320312 143.21875 158.332031 140.179688 161.394531 137.195312 C 164.460938 134.210938 167.582031 131.285156 170.753906 128.414062 C 173.929688 125.546875 177.152344 122.734375 180.429688 119.984375 C 183.707031 117.234375 187.035156 114.546875 190.410156 111.917969 C 193.785156 109.289062 197.210938 106.722656 200.679688 104.222656 C 204.152344 101.71875 207.664062 99.28125 211.226562 96.910156 C 214.785156 94.539062 218.386719 92.230469 222.035156 89.992188 C 225.679688 87.75 229.363281 85.578125 233.089844 83.472656 C 236.8125 81.371094 240.574219 79.335938 244.375 77.367188 C 248.175781 75.402344 252.011719 73.507812 255.878906 71.683594 C 259.75 69.855469 263.652344 68.105469 267.585938 66.421875 C 271.519531 64.742188 275.484375 63.132812 279.476562 61.597656 C 283.472656 60.0625 287.492188 58.601562 291.539062 57.214844 C 295.585938 55.824219 299.65625 54.511719 303.753906 53.277344 C 307.847656 52.039062 311.964844 50.875 316.105469 49.789062 C 320.242188 48.703125 324.398438 47.695312 328.574219 46.761719 C 332.75 45.828125 336.941406 44.972656 341.148438 44.195312 C 345.355469 43.414062 349.574219 42.714844 353.808594 42.089844 C 358.039062 41.464844 362.285156 40.921875 366.535156 40.453125 C 370.789062 39.984375 375.050781 39.597656 379.316406 39.285156 C 383.582031 38.976562 387.855469 38.742188 392.132812 38.589844 C 396.40625 38.4375 400.683594 38.363281 404.960938 38.367188 Z M 623.167969 535.25 L 574.261719 430.449219 C 572.390625 426.679688 570.90625 422.769531 569.808594 418.710938 C 568.710938 414.648438 568.019531 410.523438 567.734375 406.328125 C 567.449219 402.132812 567.578125 397.949219 568.121094 393.777344 C 568.660156 389.609375 569.605469 385.53125 570.949219 381.546875 C 571.890625 379.070312 572.703125 376.550781 573.390625 373.992188 C 574.078125 371.433594 574.636719 368.84375 575.0625 366.230469 C 575.492188 363.617188 575.785156 360.984375 575.949219 358.339844 C 576.113281 355.695312 576.144531 353.050781 576.042969 350.402344 C 575.941406 347.753906 575.707031 345.121094 575.34375 342.496094 C 574.976562 339.871094 574.480469 337.269531 573.851562 334.695312 C 573.226562 332.121094 572.472656 329.585938 571.589844 327.085938 C 570.710938 324.589844 569.707031 322.140625 568.578125 319.742188 L 524.902344 225.324219 C 524.144531 223.734375 523.113281 222.34375 521.8125 221.160156 C 520.507812 219.972656 519.03125 219.082031 517.375 218.476562 C 515.765625 217.914062 514.109375 217.667969 512.40625 217.746094 C 510.699219 217.824219 509.070312 218.21875 507.519531 218.929688 L 504.511719 220.320312 C 503.871094 220.617188 503.261719 220.964844 502.675781 221.359375 C 502.09375 221.753906 501.542969 222.191406 501.03125 222.675781 C 500.515625 223.15625 500.046875 223.675781 499.613281 224.234375 C 499.183594 224.792969 498.800781 225.382812 498.464844 226 C 498.128906 226.621094 497.84375 227.261719 497.609375 227.925781 C 497.375 228.589844 497.195312 229.269531 497.070312 229.960938 C 496.945312 230.65625 496.875 231.355469 496.859375 232.058594 C 496.847656 232.765625 496.886719 233.464844 496.984375 234.164062 L 508.273438 312.105469 L 460.867188 246.6875 C 460.425781 246.070312 459.933594 245.492188 459.390625 244.957031 C 458.847656 244.421875 458.261719 243.9375 457.632812 243.503906 C 457.007812 243.070312 456.347656 242.695312 455.652344 242.375 C 454.960938 242.058594 454.246094 241.800781 453.507812 241.605469 C 452.773438 241.410156 452.023438 241.28125 451.265625 241.21875 C 450.503906 241.152344 449.746094 241.15625 448.984375 241.222656 C 448.226562 241.289062 447.476562 241.421875 446.742188 241.617188 C 446.003906 241.816406 445.292969 242.074219 444.601562 242.398438 C 443.910156 242.71875 443.25 243.097656 442.625 243.53125 C 442 243.96875 441.414062 244.453125 440.875 244.992188 C 440.332031 245.527344 439.84375 246.109375 439.402344 246.730469 C 438.960938 247.351562 438.578125 248.007812 438.25 248.695312 C 437.925781 249.386719 437.660156 250.097656 437.457031 250.832031 C 437.253906 251.566406 437.117188 252.3125 437.042969 253.070312 C 436.96875 253.832031 436.960938 254.589844 437.019531 255.351562 C 437.078125 256.109375 437.203125 256.859375 437.390625 257.597656 L 456.992188 335.839844 L 404.585938 277.082031 C 404.117188 276.5625 403.609375 276.078125 403.0625 275.636719 C 402.519531 275.191406 401.941406 274.796875 401.332031 274.445312 C 400.722656 274.09375 400.089844 273.796875 399.433594 273.546875 C 398.777344 273.296875 398.105469 273.097656 397.417969 272.957031 C 396.730469 272.8125 396.035156 272.726562 395.332031 272.691406 C 394.632812 272.660156 393.933594 272.683594 393.234375 272.761719 C 392.535156 272.84375 391.847656 272.976562 391.171875 273.164062 C 390.496094 273.351562 389.835938 273.59375 389.199219 273.886719 L 386.226562 275.277344 C 385.441406 275.640625 384.695312 276.078125 383.996094 276.589844 C 383.296875 277.101562 382.652344 277.675781 382.0625 278.3125 C 381.476562 278.949219 380.957031 279.640625 380.503906 280.378906 C 380.054688 281.121094 379.679688 281.898438 379.378906 282.710938 C 379.082031 283.523438 378.863281 284.359375 378.730469 285.214844 C 378.59375 286.074219 378.546875 286.933594 378.582031 287.800781 C 378.617188 288.667969 378.738281 289.519531 378.941406 290.363281 C 379.144531 291.207031 379.429688 292.019531 379.792969 292.808594 L 423.660156 387.074219 C 424.769531 389.480469 425.996094 391.824219 427.339844 394.109375 C 428.683594 396.390625 430.136719 398.601562 431.703125 400.738281 C 433.269531 402.875 434.9375 404.925781 436.710938 406.898438 C 438.480469 408.867188 440.347656 410.742188 442.308594 412.523438 C 444.265625 414.308594 446.3125 415.988281 448.441406 417.5625 C 450.566406 419.140625 452.769531 420.609375 455.046875 421.964844 C 457.320312 423.320312 459.660156 424.5625 462.058594 425.683594 C 464.457031 426.804688 466.910156 427.804688 469.410156 428.679688 C 473.339844 430.222656 477.082031 432.136719 480.632812 434.417969 C 484.1875 436.699219 487.484375 439.304688 490.523438 442.234375 C 493.566406 445.164062 496.289062 448.363281 498.699219 451.832031 C 501.113281 455.296875 503.160156 458.964844 504.847656 462.835938 L 566.511719 595.359375 C 563.667969 597.582031 560.78125 599.746094 557.851562 601.847656 C 554.921875 603.953125 551.949219 605.992188 548.933594 607.972656 C 545.917969 609.953125 542.863281 611.871094 539.769531 613.726562 C 536.675781 615.578125 533.542969 617.367188 530.375 619.09375 C 527.207031 620.820312 524.003906 622.476562 520.765625 624.070312 C 517.53125 625.664062 514.261719 627.191406 510.964844 628.648438 C 507.664062 630.105469 504.335938 631.496094 500.976562 632.816406 C 497.621094 634.136719 494.238281 635.390625 490.828125 636.570312 C 487.421875 637.75 483.988281 638.863281 480.535156 639.902344 C 477.082031 640.941406 473.605469 641.910156 470.113281 642.804688 C 466.617188 643.703125 463.105469 644.527344 459.578125 645.277344 C 456.050781 646.03125 452.507812 646.707031 448.953125 647.3125 C 445.394531 647.917969 441.828125 648.449219 438.25 648.910156 C 434.671875 649.367188 431.085938 649.75 427.492188 650.0625 C 423.898438 650.371094 420.296875 650.609375 416.695312 650.769531 C 413.089844 650.933594 409.484375 651.019531 405.875 651.03125 C 402.269531 651.046875 398.664062 650.984375 395.058594 650.847656 C 391.453125 650.710938 387.851562 650.503906 384.257812 650.21875 C 380.660156 649.933594 377.070312 649.574219 373.488281 649.144531 C 369.90625 648.710938 366.335938 648.207031 362.777344 647.625 C 359.214844 647.046875 355.667969 646.394531 352.136719 645.667969 C 348.601562 644.941406 345.085938 644.144531 341.582031 643.273438 C 338.082031 642.402344 334.601562 641.457031 331.140625 640.441406 C 327.675781 639.429688 324.238281 638.34375 320.820312 637.1875 C 317.402344 636.03125 314.011719 634.804688 310.644531 633.507812 C 307.28125 632.210938 303.941406 630.84375 300.632812 629.410156 C 297.320312 627.976562 294.042969 626.472656 290.792969 624.90625 C 287.546875 623.335938 284.332031 621.699219 281.152344 619.996094 C 277.96875 618.296875 274.824219 616.527344 271.71875 614.695312 C 268.609375 612.863281 265.542969 610.96875 262.511719 609.011719 C 259.484375 607.054688 256.496094 605.03125 253.550781 602.953125 C 250.601562 600.871094 247.703125 598.726562 244.84375 596.527344 L 248.230469 581.707031 C 248.546875 580.3125 248.980469 578.957031 249.527344 577.636719 C 250.074219 576.316406 250.726562 575.054688 251.488281 573.84375 C 252.246094 572.632812 253.101562 571.496094 254.054688 570.429688 C 255.003906 569.363281 256.039062 568.386719 257.152344 567.492188 C 258.269531 566.601562 259.453125 565.808594 260.703125 565.117188 C 261.949219 564.421875 263.25 563.839844 264.597656 563.367188 C 265.945312 562.890625 267.320312 562.53125 268.730469 562.289062 C 270.136719 562.046875 271.554688 561.921875 272.984375 561.917969 C 275.203125 561.914062 277.382812 562.191406 279.53125 562.746094 C 281.257812 563.214844 283.007812 563.320312 284.78125 563.066406 C 286.550781 562.808594 288.199219 562.214844 289.726562 561.28125 C 291.246094 560.351562 292.527344 559.167969 293.570312 557.726562 C 294.613281 556.285156 295.339844 554.699219 295.746094 552.964844 L 340.214844 358.410156 C 340.59375 356.761719 340.929688 355.101562 341.226562 353.4375 C 341.519531 351.769531 341.777344 350.097656 341.988281 348.417969 C 342.203125 346.738281 342.375 345.054688 342.507812 343.367188 C 342.640625 341.679688 342.730469 339.988281 342.777344 338.296875 C 342.824219 336.605469 342.832031 334.914062 342.796875 333.21875 C 342.761719 331.527344 342.683594 329.835938 342.566406 328.148438 C 342.449219 326.460938 342.289062 324.773438 342.089844 323.09375 C 341.886719 321.414062 341.648438 319.738281 341.363281 318.070312 C 341.082031 316.398438 340.757812 314.738281 340.390625 313.085938 C 340.027344 311.433594 339.621094 309.789062 339.175781 308.15625 C 338.730469 306.523438 338.246094 304.902344 337.722656 303.292969 C 337.195312 301.683594 336.632812 300.085938 336.03125 298.503906 C 335.425781 296.925781 334.785156 295.359375 334.105469 293.808594 C 333.425781 292.257812 332.707031 290.726562 331.949219 289.210938 C 331.195312 287.695312 330.402344 286.199219 329.574219 284.722656 C 328.746094 283.246094 327.878906 281.792969 326.980469 280.359375 C 326.078125 278.925781 325.144531 277.515625 324.175781 276.128906 C 323.207031 274.738281 322.203125 273.375 321.164062 272.039062 C 320.128906 270.699219 319.058594 269.386719 317.957031 268.101562 C 316.859375 266.816406 315.726562 265.558594 314.5625 264.328125 C 313.398438 263.097656 312.207031 261.894531 310.984375 260.722656 C 309.765625 259.550781 308.515625 258.410156 307.234375 257.300781 C 305.957031 256.191406 304.652344 255.113281 303.324219 254.066406 C 301.992188 253.019531 300.636719 252.007812 299.253906 251.027344 C 297.875 250.046875 296.472656 249.101562 295.042969 248.191406 C 293.617188 247.28125 292.167969 246.40625 290.699219 245.566406 C 289.226562 244.726562 287.738281 243.921875 286.230469 243.15625 C 284.71875 242.390625 283.191406 241.660156 281.644531 240.96875 C 280.101562 240.277344 278.539062 239.625 276.960938 239.007812 C 275.386719 238.394531 273.792969 237.816406 272.1875 237.28125 C 270.582031 236.746094 268.964844 236.246094 267.332031 235.789062 C 265.703125 235.332031 264.0625 234.914062 262.414062 234.539062 C 261.433594 234.316406 260.445312 234.203125 259.441406 234.199219 C 258.699219 234.203125 257.964844 234.265625 257.234375 234.390625 C 256.503906 234.515625 255.789062 234.699219 255.089844 234.945312 C 254.390625 235.191406 253.714844 235.496094 253.066406 235.855469 C 252.417969 236.214844 251.804688 236.625 251.226562 237.089844 C 250.648438 237.550781 250.113281 238.058594 249.621094 238.613281 C 249.128906 239.167969 248.683594 239.757812 248.292969 240.386719 C 247.898438 241.015625 247.5625 241.671875 247.277344 242.355469 C 246.996094 243.042969 246.773438 243.746094 246.613281 244.46875 L 181.941406 527.386719 C 175.289062 516.960938 169.414062 506.121094 164.3125 494.859375 C 159.210938 483.59375 154.9375 472.027344 151.484375 460.15625 C 148.035156 448.28125 145.445312 436.226562 143.714844 423.984375 C 141.984375 411.742188 141.132812 399.4375 141.15625 387.074219 C 141.207031 382.792969 141.363281 378.511719 141.625 374.234375 C 141.882812 369.957031 142.246094 365.691406 142.714844 361.429688 C 143.183594 357.171875 143.753906 352.925781 144.429688 348.695312 C 145.101562 344.464844 145.878906 340.253906 146.761719 336.058594 C 147.640625 331.867188 148.621094 327.695312 149.703125 323.550781 C 150.789062 319.40625 151.972656 315.289062 153.253906 311.199219 C 154.539062 307.113281 155.921875 303.058594 157.402344 299.039062 C 158.882812 295.019531 160.460938 291.035156 162.136719 287.09375 C 163.8125 283.148438 165.582031 279.25 167.445312 275.390625 C 169.3125 271.535156 171.269531 267.722656 173.320312 263.960938 C 175.371094 260.199219 177.515625 256.488281 179.746094 252.832031 C 181.976562 249.175781 184.296875 245.574219 186.703125 242.027344 C 189.109375 238.484375 191.601562 235 194.179688 231.578125 C 196.757812 228.152344 199.417969 224.796875 202.15625 221.5 C 204.898438 218.207031 207.714844 214.984375 210.613281 211.828125 C 213.511719 208.671875 216.484375 205.585938 219.535156 202.574219 C 222.582031 199.5625 225.699219 196.628906 228.890625 193.769531 C 232.082031 190.910156 235.34375 188.128906 238.667969 185.429688 C 241.996094 182.726562 245.386719 180.109375 248.839844 177.574219 C 252.292969 175.039062 255.808594 172.585938 259.382812 170.222656 C 262.957031 167.859375 266.585938 165.582031 270.269531 163.394531 C 273.953125 161.207031 277.6875 159.109375 281.476562 157.105469 C 285.261719 155.101562 289.09375 153.1875 292.976562 151.367188 C 296.855469 149.550781 300.777344 147.828125 304.742188 146.199219 C 308.703125 144.570312 312.707031 143.039062 316.746094 141.609375 C 320.78125 140.175781 324.855469 138.839844 328.957031 137.605469 C 333.0625 136.371094 337.191406 135.238281 341.351562 134.203125 C 345.507812 133.171875 349.691406 132.238281 353.894531 131.410156 C 358.097656 130.582031 362.320312 129.855469 366.558594 129.230469 C 370.800781 128.605469 375.050781 128.085938 379.316406 127.667969 C 383.582031 127.253906 387.851562 126.9375 392.132812 126.730469 C 396.414062 126.523438 400.695312 126.417969 404.980469 126.417969 C 409.265625 126.417969 413.550781 126.523438 417.828125 126.730469 C 422.109375 126.9375 426.382812 127.253906 430.644531 127.667969 C 434.910156 128.085938 439.164062 128.605469 443.402344 129.230469 C 447.640625 129.855469 451.863281 130.582031 456.066406 131.410156 C 460.273438 132.238281 464.453125 133.171875 468.613281 134.203125 C 472.769531 135.238281 476.902344 136.371094 481.003906 137.605469 C 485.109375 138.839844 489.179688 140.175781 493.21875 141.609375 C 497.257812 143.039062 501.257812 144.570312 505.222656 146.199219 C 509.183594 147.828125 513.105469 149.550781 516.988281 151.367188 C 520.867188 153.1875 524.699219 155.101562 528.488281 157.105469 C 532.273438 159.109375 536.007812 161.207031 539.691406 163.394531 C 543.378906 165.582031 547.007812 167.859375 550.582031 170.222656 C 554.152344 172.585938 557.667969 175.039062 561.121094 177.574219 C 564.578125 180.109375 567.964844 182.726562 571.292969 185.429688 C 574.621094 188.128906 577.878906 190.910156 581.070312 193.769531 C 584.261719 196.628906 587.378906 199.5625 590.429688 202.574219 C 593.476562 205.585938 596.449219 208.671875 599.347656 211.828125 C 602.246094 214.984375 605.066406 218.207031 607.804688 221.5 C 610.546875 224.796875 613.203125 228.152344 615.78125 231.578125 C 618.359375 235 620.851562 238.484375 623.257812 242.027344 C 625.664062 245.574219 627.984375 249.175781 630.214844 252.832031 C 632.449219 256.488281 634.589844 260.199219 636.640625 263.960938 C 638.691406 267.722656 640.648438 271.535156 642.515625 275.390625 C 644.378906 279.25 646.152344 283.148438 647.824219 287.09375 C 649.5 291.035156 651.078125 295.019531 652.5625 299.039062 C 654.042969 303.058594 655.425781 307.113281 656.707031 311.199219 C 657.992188 315.289062 659.175781 319.40625 660.257812 323.550781 C 661.339844 327.695312 662.324219 331.867188 663.203125 336.058594 C 664.082031 340.253906 664.859375 344.464844 665.535156 348.695312 C 666.207031 352.925781 666.78125 357.171875 667.246094 361.429688 C 667.714844 365.691406 668.078125 369.957031 668.339844 374.234375 C 668.597656 378.511719 668.753906 382.792969 668.804688 387.074219 C 668.828125 393.640625 668.605469 400.195312 668.132812 406.742188 C 667.660156 413.289062 666.945312 419.808594 665.980469 426.300781 C 665.015625 432.796875 663.804688 439.242188 662.351562 445.644531 C 660.898438 452.046875 659.207031 458.382812 657.277344 464.65625 C 655.34375 470.929688 653.179688 477.121094 650.78125 483.230469 C 648.378906 489.339844 645.753906 495.351562 642.898438 501.261719 C 640.042969 507.175781 636.96875 512.96875 633.675781 518.648438 C 630.382812 524.328125 626.882812 529.871094 623.167969 535.285156 Z M 478.25 403.816406 C 474.882812 402.640625 471.671875 401.140625 468.609375 399.316406 C 465.542969 397.492188 462.695312 395.382812 460.058594 392.984375 C 457.421875 390.585938 455.046875 387.949219 452.941406 385.074219 C 450.835938 382.199219 449.039062 379.140625 447.550781 375.902344 L 436.714844 352.65625 L 460.453125 379.25 C 460.921875 379.773438 461.429688 380.257812 461.976562 380.699219 C 462.523438 381.140625 463.097656 381.539062 463.707031 381.890625 C 464.316406 382.238281 464.949219 382.539062 465.605469 382.789062 C 466.261719 383.039062 466.933594 383.234375 467.621094 383.378906 C 468.308594 383.523438 469.003906 383.609375 469.707031 383.640625 C 470.410156 383.675781 471.109375 383.652344 471.808594 383.570312 C 472.503906 383.492188 473.191406 383.359375 473.867188 383.171875 C 474.546875 382.984375 475.203125 382.742188 475.84375 382.449219 L 483.894531 378.6875 C 484.578125 378.367188 485.230469 377.992188 485.847656 377.5625 C 486.46875 377.128906 487.046875 376.648438 487.582031 376.117188 C 488.121094 375.585938 488.609375 375.011719 489.046875 374.398438 C 489.484375 373.78125 489.867188 373.136719 490.195312 372.453125 C 490.519531 371.773438 490.789062 371.070312 490.992188 370.34375 C 491.199219 369.617188 491.339844 368.878906 491.417969 368.128906 C 491.496094 367.375 491.511719 366.625 491.460938 365.871094 C 491.410156 365.117188 491.296875 364.375 491.117188 363.640625 L 479.828125 317.824219 L 507.480469 356.117188 C 507.929688 356.730469 508.425781 357.300781 508.972656 357.832031 C 509.519531 358.359375 510.105469 358.835938 510.730469 359.265625 C 511.359375 359.691406 512.019531 360.0625 512.710938 360.378906 C 513.402344 360.691406 514.117188 360.945312 514.851562 361.136719 C 515.585938 361.332031 516.332031 361.457031 517.089844 361.523438 C 517.84375 361.585938 518.601562 361.585938 519.359375 361.519531 C 520.117188 361.457031 520.863281 361.324219 521.597656 361.132812 C 522.332031 360.9375 523.042969 360.683594 523.734375 360.367188 L 531.785156 356.605469 C 532.425781 356.308594 533.035156 355.960938 533.621094 355.566406 C 534.203125 355.171875 534.75 354.734375 535.265625 354.25 C 535.777344 353.769531 536.25 353.25 536.679688 352.691406 C 537.109375 352.132812 537.496094 351.542969 537.832031 350.925781 C 538.167969 350.304688 538.453125 349.664062 538.6875 349 C 538.921875 348.335938 539.101562 347.65625 539.226562 346.960938 C 539.351562 346.269531 539.421875 345.570312 539.4375 344.867188 C 539.449219 344.160156 539.40625 343.460938 539.308594 342.761719 L 533.855469 307.441406 L 544.691406 330.6875 C 546.199219 333.910156 547.371094 337.246094 548.207031 340.703125 C 549.046875 344.160156 549.535156 347.664062 549.667969 351.21875 C 549.804688 354.769531 549.585938 358.300781 549.015625 361.8125 C 548.441406 365.320312 547.527344 368.738281 546.269531 372.066406 C 545.289062 374.878906 544.449219 377.730469 543.75 380.625 C 543.050781 383.515625 542.496094 386.4375 542.082031 389.386719 C 541.671875 392.335938 541.40625 395.296875 541.289062 398.273438 C 541.167969 401.246094 541.195312 404.21875 541.371094 407.191406 C 541.542969 410.164062 541.863281 413.121094 542.328125 416.0625 C 542.792969 419 543.402344 421.914062 544.15625 424.792969 C 544.90625 427.671875 545.800781 430.511719 546.832031 433.300781 C 547.863281 436.09375 549.03125 438.828125 550.332031 441.507812 L 682.3125 725.140625 C 682.644531 725.855469 682.902344 726.59375 683.089844 727.359375 C 683.273438 728.128906 683.386719 728.902344 683.417969 729.691406 C 683.453125 730.480469 683.40625 731.261719 683.285156 732.042969 C 683.164062 732.820312 682.96875 733.582031 682.699219 734.320312 C 682.429688 735.0625 682.089844 735.769531 681.679688 736.441406 C 681.269531 737.117188 680.796875 737.742188 680.261719 738.324219 C 679.730469 738.902344 679.144531 739.425781 678.507812 739.890625 C 677.871094 740.359375 677.195312 740.757812 676.480469 741.089844 C 675.765625 741.421875 675.023438 741.679688 674.257812 741.867188 C 673.492188 742.054688 672.714844 742.164062 671.925781 742.195312 C 671.136719 742.230469 670.355469 742.183594 669.574219 742.0625 C 668.796875 741.945312 668.035156 741.746094 667.296875 741.476562 C 666.554688 741.207031 665.847656 740.867188 665.175781 740.457031 C 664.5 740.046875 663.875 739.574219 663.292969 739.039062 C 662.714844 738.507812 662.191406 737.921875 661.722656 737.285156 C 661.257812 736.648438 660.859375 735.972656 660.527344 735.257812 L 528.589844 451.625 C 527.378906 448.914062 526.042969 446.265625 524.574219 443.683594 C 523.109375 441.101562 521.515625 438.601562 519.804688 436.175781 C 518.089844 433.75 516.261719 431.414062 514.316406 429.167969 C 512.375 426.921875 510.324219 424.777344 508.171875 422.734375 C 506.015625 420.6875 503.769531 418.753906 501.425781 416.933594 C 499.082031 415.109375 496.652344 413.40625 494.140625 411.820312 C 491.628906 410.234375 489.046875 408.777344 486.390625 407.445312 C 483.734375 406.113281 481.023438 404.917969 478.25 403.851562 Z M 478.25 403.816406 " fill-opacity="1" fill-rule="nonzero"/></svg>