<svg xmlns="http://www.w3.org/2000/svg" xmlns:xlink="http://www.w3.org/1999/xlink" width="1080" zoomAndPan="magnify" viewBox="0 0 810 809.999993" height="1080" preserveAspectRatio="xMidYMid meet" version="1.0"><path fill="#000000" d="M 561.058594 571.476562 C 573.074219 586.601562 558.628906 603.34375 551.746094 609.691406 C 542.835938 618.199219 531.359375 625.085938 517.320312 630.351562 C 510.164062 633.050781 504.496094 634.671875 499.09375 635.347656 L 495.855469 635.753906 C 482.085938 637.238281 466.558594 635.886719 448.335938 631.835938 C 412.289062 624.140625 378.808594 602.265625 345.871094 565.128906 C 340.875 560.269531 303.34375 522.59375 279.316406 469.523438 C 255.148438 415.644531 252.179688 362.980469 251.910156 357.171875 C 245.96875 306.53125 252.046875 266.96875 269.863281 234.964844 C 279.71875 217.410156 289.980469 204.039062 301.050781 194.585938 C 304.964844 191.078125 310.09375 187.835938 316.980469 184.191406 C 329.804688 177.707031 342.359375 173.65625 354.105469 172.441406 C 361.53125 171.765625 386.503906 171.089844 389.746094 190.671875 L 392.984375 224.429688 C 394.46875 239.417969 397.710938 277.363281 397.710938 277.363281 C 400.140625 301.402344 397.304688 314.09375 373.949219 317.335938 C 372.195312 317.472656 370.441406 317.199219 368.28125 317.199219 C 363.015625 316.660156 358.289062 316.390625 354.105469 316.390625 L 337.09375 316.527344 L 337.5 333.539062 C 337.90625 352.582031 344.65625 401.597656 359.101562 433.875 C 372.464844 463.582031 403.378906 501.527344 419.714844 516.515625 L 432.269531 527.992188 L 443.609375 515.164062 C 446.175781 512.195312 449.011719 508.546875 450.628906 506.386719 C 453.464844 502.605469 454.816406 500.714844 456.03125 499.769531 C 461.96875 494.640625 467.503906 491.804688 473.039062 491.265625 C 483.839844 490.183594 491.941406 498.015625 501.390625 508.414062 Z M 810 405.109375 C 810 629.136719 628.695312 810.894531 405 810.894531 C 181.304688 810.894531 0 629.136719 0 405.109375 C 0 181.082031 181.304688 -0.675781 405 -0.675781 C 628.695312 -0.675781 810 181.082031 810 405.109375 Z M 748.441406 405.109375 C 748.441406 215.113281 594.675781 61.035156 405 61.035156 C 215.324219 61.035156 61.558594 215.113281 61.558594 405.109375 C 61.558594 595.105469 215.324219 749.183594 405 749.183594 C 594.675781 749.183594 748.441406 595.105469 748.441406 405.109375 Z M 748.441406 405.109375 " fill-opacity="1" fill-rule="nonzero"/></svg>