<svg xmlns="http://www.w3.org/2000/svg" xmlns:xlink="http://www.w3.org/1999/xlink" width="1080" zoomAndPan="magnify" viewBox="0 0 810 809.999993" height="1080" preserveAspectRatio="xMidYMid meet" version="1.0"><defs><clipPath id="fde6a4144b"><path d="M 13.164062 0 L 796.914062 0 L 796.914062 810 L 13.164062 810 Z M 13.164062 0 " clip-rule="nonzero"/></clipPath></defs><g clip-path="url(#fde6a4144b)"><path fill="#ef7f4d" d="M 684.015625 162 L 627.746094 27 L 680.746094 27 L 759.476562 162 Z M 715.496094 472.5 C 715.496094 502.292969 691.292969 526.5 661.496094 526.5 C 631.703125 526.5 607.496094 502.292969 607.496094 472.5 C 607.496094 442.707031 631.703125 418.5 661.496094 418.5 C 691.292969 418.5 715.496094 442.707031 715.496094 472.5 Z M 674.417969 720.246094 L 661.496094 733.957031 L 648.578125 720.246094 L 661.445312 595.371094 C 661.445312 594.949219 661.496094 594.472656 661.496094 594.050781 C 661.496094 594.472656 661.550781 594.949219 661.550781 595.371094 Z M 665.453125 584.453125 C 662.921875 586.984375 661.496094 590.414062 661.496094 593.945312 C 661.496094 590.414062 660.074219 586.984375 657.542969 584.453125 L 647.996094 574.910156 L 647.996094 567 L 674.996094 567 L 674.996094 574.910156 Z M 769.496094 634.5 L 769.496094 783 L 553.496094 783 L 553.496094 634.5 C 553.496094 597.269531 583.765625 567 620.996094 567 L 620.996094 580.5 C 620.996094 584.085938 622.421875 587.511719 624.953125 590.042969 L 633.917969 599.007812 L 621.050781 723.671875 C 620.679688 727.574219 622 731.425781 624.6875 734.324219 L 651.6875 762.90625 C 654.21875 765.597656 657.804688 767.125 661.496094 767.125 C 665.1875 767.125 668.773438 765.597656 671.304688 762.90625 L 698.304688 734.324219 C 700.996094 731.425781 702.3125 727.574219 701.945312 723.671875 L 689.078125 599.007812 L 698.042969 590.042969 C 700.574219 587.511719 701.996094 584.085938 701.996094 580.5 L 701.996094 567 C 739.226562 567 769.496094 597.269531 769.496094 634.5 Z M 607.496094 297 L 607.496094 412.277344 C 594.15625 424.246094 584.820312 440.597656 581.710938 459 L 418.496094 459 L 418.496094 297 Z M 364.496094 567 L 364.496094 283.5 C 364.496094 276.066406 358.433594 270 350.996094 270 L 188.996094 270 C 181.5625 270 175.496094 276.066406 175.496094 283.5 L 175.496094 567 L 148.496094 567 L 148.496094 229.34375 C 159.78125 237.832031 173.757812 243 188.996094 243 C 211.039062 243 230.65625 232.347656 242.996094 215.949219 C 255.335938 232.347656 274.953125 243 296.996094 243 C 319.039062 243 338.65625 232.347656 350.996094 215.949219 C 363.335938 232.347656 382.953125 243 404.996094 243 C 427.039062 243 446.65625 232.347656 458.996094 215.949219 C 471.335938 232.347656 490.953125 243 512.996094 243 C 535.039062 243 554.65625 232.347656 566.996094 215.949219 C 579.335938 232.347656 598.953125 243 620.996094 243 C 636.238281 243 650.210938 237.832031 661.496094 229.34375 L 661.496094 391.5 C 652.003906 391.5 642.933594 393.238281 634.496094 396.191406 L 634.496094 283.5 C 634.496094 276.066406 628.433594 270 620.996094 270 L 404.996094 270 C 397.5625 270 391.496094 276.066406 391.496094 283.5 L 391.496094 472.5 C 391.496094 479.933594 397.5625 486 404.996094 486 L 581.710938 486 C 585.507812 508.621094 598.691406 528.082031 617.148438 540.210938 C 592.996094 541.160156 571.164062 551.179688 554.972656 567 Z M 337.496094 567 L 202.496094 567 L 202.496094 297 L 337.496094 297 Z M 125.980469 162 L 50.515625 162 L 129.25 27 L 182.246094 27 Z M 80.996094 216 C 63.382812 216 48.355469 204.714844 42.816406 189 L 119.175781 189 C 113.640625 204.714844 98.609375 216 80.996094 216 Z M 227.175781 189 C 221.585938 204.714844 206.609375 216 188.996094 216 C 171.382812 216 156.40625 204.714844 150.816406 189 Z M 266.199219 27 L 232.449219 162 L 155.246094 162 L 211.515625 27 Z M 335.175781 189 C 329.585938 204.714844 314.609375 216 296.996094 216 C 279.382812 216 264.40625 204.714844 258.816406 189 Z M 349.835938 27 L 338.605469 162 L 260.292969 162 L 294.042969 27 Z M 443.175781 189 C 437.585938 204.714844 422.609375 216 404.996094 216 C 387.382812 216 372.40625 204.714844 366.816406 189 Z M 376.890625 27 L 433.105469 27 L 444.335938 162 L 365.65625 162 Z M 551.175781 189 C 545.585938 204.714844 530.609375 216 512.996094 216 C 495.382812 216 480.40625 204.714844 474.816406 189 Z M 515.949219 27 L 549.699219 162 L 471.390625 162 L 460.15625 27 Z M 659.175781 189 C 653.585938 204.714844 638.609375 216 620.996094 216 C 603.382812 216 588.40625 204.714844 582.816406 189 Z M 598.480469 27 L 654.746094 162 L 577.542969 162 L 543.792969 27 Z M 728.996094 216 C 711.382812 216 696.40625 204.714844 690.816406 189 L 767.175781 189 C 761.585938 204.714844 746.609375 216 728.996094 216 Z M 728.996094 243 C 766.226562 243 796.496094 212.730469 796.496094 175.5 C 796.496094 173.917969 796.128906 172.390625 795.546875 170.859375 C 795.390625 170.492188 795.285156 170.070312 795.074219 169.753906 C 794.914062 169.382812 794.863281 169.015625 794.652344 168.699219 L 700.152344 6.699219 C 697.726562 2.53125 693.296875 0 688.496094 0 L 121.496094 0 C 116.699219 0 112.269531 2.53125 109.84375 6.699219 L 15.34375 168.699219 C 15.132812 169.015625 15.078125 169.382812 14.921875 169.753906 C 14.710938 170.070312 14.605469 170.492188 14.445312 170.859375 C 13.867188 172.390625 13.496094 173.917969 13.496094 175.5 C 13.496094 212.730469 43.765625 243 80.996094 243 C 96.183594 243 110.210938 237.832031 121.496094 229.34375 L 121.496094 580.5 C 121.496094 587.933594 127.5625 594 134.996094 594 L 535.726562 594 C 529.871094 606.285156 526.496094 619.996094 526.496094 634.5 L 526.496094 796.5 C 526.496094 803.933594 532.5625 810 539.996094 810 L 782.996094 810 C 790.433594 810 796.496094 803.933594 796.496094 796.5 L 796.496094 634.5 C 796.496094 583.714844 756.15625 542.214844 705.847656 540.210938 C 727.890625 525.707031 742.496094 500.765625 742.496094 472.5 C 742.496094 437.324219 719.925781 407.371094 688.496094 396.191406 L 688.496094 229.34375 C 699.78125 237.832031 713.757812 243 728.996094 243 " fill-opacity="1" fill-rule="nonzero"/></g></svg>