<svg xmlns="http://www.w3.org/2000/svg" xmlns:xlink="http://www.w3.org/1999/xlink" width="1080" zoomAndPan="magnify" viewBox="0 0 810 809.999993" height="1080" preserveAspectRatio="xMidYMid meet" version="1.0"><defs><clipPath id="0fa7cd6cc0"><path d="M 0 25.3125 L 807 25.3125 L 807 785 L 0 785 Z M 0 25.3125 " clip-rule="nonzero"/></clipPath></defs><g clip-path="url(#0fa7cd6cc0)"><path fill="#ef7f4d" d="M 796.902344 684.746094 L 677.777344 569.152344 C 671.597656 563.152344 663.429688 559.910156 654.78125 560.050781 C 650.082031 560.121094 645.566406 561.210938 641.453125 563.15625 L 593.679688 516.804688 L 772.945312 516.804688 C 776.519531 516.804688 779.925781 515.285156 782.316406 512.625 C 784.707031 509.964844 785.851562 506.417969 785.472656 502.863281 C 780.386719 455.332031 749.132812 416.582031 706.894531 400.226562 C 721.589844 387.539062 730.917969 368.796875 730.917969 347.90625 C 730.917969 309.792969 699.90625 278.78125 661.789062 278.78125 C 639.175781 278.78125 619.0625 289.699219 606.441406 306.539062 C 572.789062 221.527344 489.765625 161.242188 392.925781 161.242188 C 296.082031 161.242188 213.058594 221.53125 179.40625 306.546875 C 166.785156 289.707031 146.683594 278.78125 124.066406 278.78125 C 85.949219 278.78125 54.9375 309.789062 54.9375 347.90625 C 54.9375 368.792969 64.265625 387.535156 78.957031 400.222656 C 36.71875 416.578125 5.46875 455.328125 0.382812 502.859375 C 0 506.414062 1.148438 509.960938 3.539062 512.621094 C 5.929688 515.28125 9.335938 516.800781 12.910156 516.800781 L 201.195312 516.800781 C 242.285156 579.09375 312.878906 620.292969 392.925781 620.292969 C 446.445312 620.292969 495.742188 601.878906 534.820312 571.054688 L 584.832031 619.585938 C 581.582031 624.800781 579.867188 630.84375 579.960938 637.152344 C 580.09375 645.804688 583.570312 653.867188 589.75 659.863281 L 708.875 775.457031 C 715.144531 781.539062 723.265625 784.566406 731.378906 784.566406 C 739.820312 784.566406 748.25 781.289062 754.578125 774.769531 L 797.589844 730.445312 C 810 717.660156 809.691406 697.160156 796.902344 684.746094 Z M 757.921875 491.605469 L 599.082031 491.605469 C 609.027344 471.355469 616.078125 449.441406 619.683594 426.398438 C 632.78125 420.261719 647.207031 417.039062 661.769531 417.035156 C 661.777344 417.035156 661.785156 417.035156 661.792969 417.035156 C 661.796875 417.035156 661.804688 417.035156 661.808594 417.035156 C 707.828125 417.042969 746.9375 448.242188 757.921875 491.605469 Z M 661.792969 303.980469 C 686.015625 303.980469 705.71875 323.6875 705.71875 347.910156 C 705.71875 372.125 686.023438 391.828125 661.808594 391.835938 C 661.804688 391.835938 661.796875 391.835938 661.792969 391.835938 C 661.785156 391.835938 661.78125 391.835938 661.773438 391.835938 C 643.175781 391.828125 627.253906 380.195312 620.863281 363.828125 C 620.132812 357.609375 619.164062 351.460938 617.945312 345.402344 C 619.246094 322.34375 638.414062 303.980469 661.792969 303.980469 Z M 80.144531 347.910156 C 80.144531 323.6875 99.847656 303.980469 124.070312 303.980469 C 147.445312 303.980469 166.609375 322.339844 167.921875 345.390625 C 166.699219 351.457031 165.726562 357.609375 164.992188 363.839844 C 158.601562 380.199219 142.683594 391.828125 124.089844 391.835938 C 124.082031 391.835938 124.078125 391.835938 124.070312 391.835938 C 124.066406 391.835938 124.058594 391.835938 124.054688 391.835938 C 99.839844 391.828125 80.144531 372.125 80.144531 347.910156 Z M 27.9375 491.605469 C 38.921875 448.242188 78.03125 417.042969 124.050781 417.035156 C 124.058594 417.035156 124.0625 417.035156 124.070312 417.035156 C 124.074219 417.035156 124.078125 417.035156 124.085938 417.035156 C 138.652344 417.039062 153.078125 420.257812 166.171875 426.394531 C 169.777344 449.4375 176.828125 471.355469 186.773438 491.601562 Z M 188.605469 390.773438 C 188.605469 278.105469 280.261719 186.445312 392.929688 186.445312 C 505.59375 186.445312 597.253906 278.105469 597.253906 390.773438 C 597.253906 503.4375 505.59375 595.097656 392.929688 595.097656 C 280.261719 595.097656 188.605469 503.4375 188.605469 390.773438 Z M 573.492188 532.324219 L 622.410156 579.792969 L 601.851562 600.984375 L 553.777344 554.335938 C 560.800781 547.429688 567.394531 540.082031 573.492188 532.324219 Z M 779.507812 712.902344 L 736.5 757.226562 C 733.808594 759.996094 729.195312 760.0625 726.425781 757.375 L 607.296875 641.777344 C 605.949219 640.46875 605.191406 638.695312 605.164062 636.777344 C 605.132812 634.859375 605.839844 633.058594 607.148438 631.710938 L 650.15625 587.386719 C 651.464844 586.035156 653.246094 585.277344 655.164062 585.25 C 655.199219 585.25 655.238281 585.25 655.273438 585.25 C 657.148438 585.25 658.90625 585.953125 660.226562 587.238281 L 779.355469 702.832031 C 782.125 705.519531 782.195312 710.128906 779.507812 712.902344 Z M 392.929688 224.152344 C 301.054688 224.152344 226.3125 298.898438 226.3125 390.773438 C 226.3125 482.644531 301.054688 557.390625 392.929688 557.390625 C 484.804688 557.390625 559.546875 482.644531 559.546875 390.773438 C 559.546875 298.898438 484.804688 224.152344 392.929688 224.152344 Z M 392.929688 249.351562 C 470.910156 249.351562 534.347656 312.792969 534.347656 390.773438 C 534.347656 422.125 524.085938 451.121094 506.753906 474.59375 C 495.417969 440.902344 469.757812 414.269531 437.226562 401.421875 C 451.121094 389.140625 459.910156 371.203125 459.910156 351.242188 C 459.910156 314.3125 429.863281 284.265625 392.929688 284.265625 C 355.996094 284.265625 325.949219 314.3125 325.949219 351.242188 C 325.949219 371.203125 334.738281 389.140625 348.632812 401.421875 C 316.101562 414.265625 290.441406 440.902344 279.105469 474.59375 C 261.773438 451.121094 251.511719 422.121094 251.511719 390.769531 C 251.511719 312.792969 314.949219 249.351562 392.929688 249.351562 Z M 392.929688 393.023438 C 392.925781 393.023438 392.917969 393.023438 392.914062 393.023438 C 369.882812 393.015625 351.148438 374.277344 351.148438 351.242188 C 351.148438 328.207031 369.890625 309.464844 392.929688 309.464844 C 415.964844 309.464844 434.707031 328.207031 434.707031 351.242188 C 434.707031 374.277344 415.972656 393.015625 392.941406 393.023438 C 392.941406 393.023438 392.9375 393.023438 392.929688 393.023438 Z M 299.414062 496.757812 C 307.238281 451.578125 346.371094 418.230469 392.914062 418.222656 C 392.917969 418.222656 392.921875 418.222656 392.929688 418.222656 C 392.9375 418.222656 392.941406 418.222656 392.945312 418.222656 C 439.488281 418.230469 478.621094 451.578125 486.445312 496.757812 C 461.5 518.792969 428.75 532.1875 392.929688 532.1875 C 357.105469 532.1875 324.359375 518.792969 299.414062 496.757812 Z M 380.328125 99.75 L 380.328125 37.878906 C 380.328125 30.921875 385.972656 25.28125 392.929688 25.28125 C 399.886719 25.28125 405.527344 30.921875 405.527344 37.878906 L 405.527344 99.75 C 405.527344 106.710938 399.886719 112.351562 392.929688 112.351562 C 385.972656 112.351562 380.328125 106.710938 380.328125 99.75 Z M 493.273438 113.9375 L 531.5 65.285156 C 535.796875 59.8125 543.71875 58.863281 549.191406 63.160156 C 554.664062 67.460938 555.613281 75.382812 551.316406 80.855469 L 513.089844 129.503906 C 510.605469 132.667969 506.90625 134.320312 503.171875 134.320312 C 500.449219 134.320312 497.707031 133.441406 495.398438 131.628906 C 489.925781 127.328125 488.976562 119.410156 493.273438 113.9375 Z M 234.542969 80.855469 C 230.246094 75.382812 231.195312 67.460938 236.667969 63.160156 C 242.140625 58.863281 250.0625 59.816406 254.359375 65.285156 L 292.585938 113.9375 C 296.882812 119.410156 295.933594 127.328125 290.460938 131.628906 C 288.152344 133.441406 285.40625 134.320312 282.683594 134.320312 C 278.949219 134.320312 275.253906 132.667969 272.765625 129.503906 Z M 234.542969 80.855469 " fill-opacity="1" fill-rule="nonzero"/></g></svg>